<svg id="Layer_1" data-name="Layer 1" xmlns="http://www.w3.org/2000/svg" xmlns:xlink="http://www.w3.org/1999/xlink" viewBox="0 0 1920 1080"><defs><style>.cls-1{fill:none;}.cls-2,.cls-5,.cls-6{fill:#fff;}.cls-2{stroke:#000;stroke-miterlimit:10;stroke-width:0.1px;}.cls-3{clip-path:url(#clip-path);}.cls-4{fill:#f7f7f8;}.cls-4,.cls-5,.cls-7{fill-rule:evenodd;}.cls-7{fill:#211915;}.cls-8{fill:#262424;}.cls-9{fill:#406ea0;}.cls-10{fill:#e7ad4b;}.cls-11{fill:#ca262a;}.cls-12{fill:#6e6f71;}.cls-13{fill:#262324;}.cls-14{fill:#434345;}.cls-15{fill:#040706;}.cls-16{opacity:0.1;}.cls-17{clip-path:url(#clip-path-5);}</style><clipPath id="clip-path"><rect class="cls-1" x="542.03" y="566.68" width="422.75" height="463.95"/></clipPath><clipPath id="clip-path-5"><rect class="cls-1" x="926.13" y="279.9" width="73.71" height="73.71"/></clipPath></defs><title>logo</title><path class="cls-2" d="M1136.71,916a35.75,35.75,0,0,1,13.83,2.56,29.66,29.66,0,0,1,10.51,7.26,31.89,31.89,0,0,1,6.67,11.38,49.17,49.17,0,0,1,0,29.84,31.89,31.89,0,0,1-6.67,11.34,29.23,29.23,0,0,1-10.51,7.22,36.13,36.13,0,0,1-13.83,2.53,36.58,36.58,0,0,1-13.93-2.53,29.16,29.16,0,0,1-10.55-7.22,31.91,31.91,0,0,1-6.67-11.34,49.19,49.19,0,0,1,0-29.84,31.91,31.91,0,0,1,6.67-11.38,29.58,29.58,0,0,1,10.55-7.26,36.2,36.2,0,0,1,13.93-2.56m0,62.52q10.38,0,15.49-7t5.12-19.4q0-12.52-5.12-19.5t-15.49-7a21.72,21.72,0,0,0-9.16,1.8,17,17,0,0,0-6.5,5.19,23,23,0,0,0-3.87,8.33,44.64,44.64,0,0,0-1.28,11.17q0,12.45,5.15,19.4t15.66,7"/><g class="cls-3"><g class="cls-3"><path class="cls-4" d="M771.86,712.93a2.92,2.92,0,0,0-1.22-1.34,1,1,0,0,0-1.45.42,1.23,1.23,0,0,0,.38,1.59l.25.16.08.08c.05.09.1.18.14.27a1,1,0,0,0,1.45.42,1.25,1.25,0,0,0,.38-1.59"/></g><g class="cls-3"><path class="cls-5" d="M775.13,706.54a5,5,0,0,0-2,.67,2.75,2.75,0,0,1-.55-.33c-.26-.19-.51-.38-.79-.55a1,1,0,0,0-1.45.42,1.15,1.15,0,0,0-.07.17l-.19-.12a35.39,35.39,0,0,1-4.18-3.3,1.11,1.11,0,0,0-1.49,1.64,31.55,31.55,0,0,0,3.64,3c1.2.81,2.81,1.54,3.75,2.71.75.94,2.13,1.47,2.68,0a3.42,3.42,0,0,0,.1-1.55c0-.44-.29-.21.1-.32s.7-.11,1-.21c1.32-.36.76-2.59-.56-2.24"/><path class="cls-6" d="M823.07,752a39.36,39.36,0,0,0-.58-8.05c0-.05,0-.1,0-.15-.14-2.47.1-4.8-.38-7.26l-.19-1a3.83,3.83,0,0,0,.11-1.26,19.67,19.67,0,0,0-.43-2.68c0-.22,0-.45,0-.67a17.6,17.6,0,0,0-.24-2.25l0-.14c0-.38-.06-.77-.1-1.15,0-.08,0-.16,0-.24a4.06,4.06,0,0,0-.19-1.68,13.77,13.77,0,0,1-.49-1.91c0-.14-.09-.68-.1-.79,0-.55-.07-1.1-.1-1.65-.1-1.84-.29-3.66-.46-5.49-.08-.87-.16-1.75-.24-2.62,0-.43-.09-.87-.14-1.3s-.14-1.13-.21-1.7q.11.84,0,0a33.72,33.72,0,0,0-1-6.13,5.41,5.41,0,0,0-.9-1.79,9.56,9.56,0,0,0-4.17-5.56c-2.88-1.92-6.34-2.51-9.62-2.86s-6.7-.58-10-.81c-1.74-.12-3.54-.38-5.32-.43a11.34,11.34,0,0,1,.53-1.2l0-.08a2.66,2.66,0,0,0,.43-.43,1.25,1.25,0,0,0,.16-1.28,22.86,22.86,0,0,0,0-6.18c-.12-2-.33-4.32-1.86-5.68a1.14,1.14,0,0,0-1.83,1.11,1.11,1.11,0,0,0-.26.79,11.28,11.28,0,0,0,.16,1.56.9.9,0,0,0-.66.89,16.7,16.7,0,0,0-1.31-2.43c-.69-1-1.46-2-2.07-3.08a1.27,1.27,0,0,0-.15-.21c.54-3.78-3.39-5.34-4.6-8.32-.49-1.21-1.49-3.27-3-2.82a8.33,8.33,0,0,0-2.48,1.38,1,1,0,0,0-.75-.35c-2.2.11-3.34,2.21-4.27,4.16a16.17,16.17,0,0,0-1.09,2.94H765a4.59,4.59,0,0,0-2.45,1.39h0c-1.2.1-2.4-.63-3.61-.7a.89.89,0,0,0-.73.28,2.69,2.69,0,0,0-.59,0c-.58.05-.91.45-1.36.79a4.1,4.1,0,0,0-1.71,1.95c-2,.63-4.51,1.78-4.05,4,.33,1.6,1.59,2,3,1.85a4.32,4.32,0,0,0-.39,2.38,2.82,2.82,0,0,0,1.63,2.17,3.09,3.09,0,0,0-.23,2.8s0,.05,0,.08a3,3,0,0,0,.38,1.48,1.32,1.32,0,0,0,.08.61,18.21,18.21,0,0,0,.84,1.91l.09.31a7.32,7.32,0,0,0,1.19,2.16c1.09,1.46,2,3.06,3.15,4.44a1,1,0,0,0,.59.35,1.68,1.68,0,0,0,.72.54,12.74,12.74,0,0,1,2,2.65,5.34,5.34,0,0,0,2.67,2.17,12.4,12.4,0,0,0,3.34.87c1.51.22,3-.35,4.52-.27.68,0,1.32.1,2,.1-.82.5-1.64,1-2.43,1.57-.29.21-.58.44-.86.67l-.41.33-1,.88c-.65.56-1.29,1.12-1.9,1.75a14.18,14.18,0,0,0-3,5.15c-.25.68-.41,1.4-.61,2.09,0,.09-.11.32-.17.49s-.4.69-.32.61c-.83,1.08-1.81,2-2.63,3.1-.56.74-1.08,1.52-1.61,2.29.27-.39-.31.42-.39.52a12.89,12.89,0,0,1-1,1.16,5.12,5.12,0,0,0-.53,6c-.13.3-.25.62-.36.95a19.83,19.83,0,0,0-.72,6.39,4.93,4.93,0,0,0,1.7,3.75c.21,1,.4,1.94.65,2.88a27.68,27.68,0,0,0,1.44,3.58c.37.88.74,1.76,1.14,2.61a6.51,6.51,0,0,0,.44,2.09l0,.08c-.33-.77,0,.24,0,.46a7.83,7.83,0,0,0,.44,1.65,11.68,11.68,0,0,0,.32,1.15,13.77,13.77,0,0,0,2,4.32l.23.59a4.89,4.89,0,0,0,.51.77,4.79,4.79,0,0,0,.26.58,4.44,4.44,0,0,0,2.59,2.19,3.94,3.94,0,0,0,1.06.16,3.82,3.82,0,0,0,.8.09q1.43,0,2.85,0l.57,0c1.78-.16,3.28,0,5.2-.25,10.52-.74,21-2.42,31.53-2.45a3.71,3.71,0,0,1,2.15.23c.31,0,.61,0,.91,0l.13,0a8.49,8.49,0,0,0,3.48,0,5.52,5.52,0,0,0,3.36-2.72,10.5,10.5,0,0,0,1.15-4.48c.23-2.2.06-4.48.09-6.69m-69-71.69a5,5,0,0,1-1.17.11.53.53,0,0,1-.2-.05l0,0a5.79,5.79,0,0,1,1.17-.67l.22-.09q0,.36,0,.73m3.84,11.36a1.14,1.14,0,0,0-.43.23l0-.06a3.51,3.51,0,0,0-.43-.73c-.14-.5-.85-2.11-.62-2.36a1.11,1.11,0,0,0,.32-.84l.19,0a1.64,1.64,0,0,0,.27.25,1.1,1.1,0,0,0,0,.63,10.62,10.62,0,0,1,.48,1.68,1.19,1.19,0,0,0,.34.61,5.3,5.3,0,0,0-.12.56m22.17,8.84a9.44,9.44,0,0,1-2.66,2.74,8.72,8.72,0,0,1-3.06,1.27,5.88,5.88,0,0,1-3.78-.5,5.61,5.61,0,0,0-3.27-.45,1.8,1.8,0,0,0-.55.25l-.11-.23a5.11,5.11,0,0,1-.34-1.37,2.49,2.49,0,0,0,1.58-.78.88.88,0,0,0,.86.46,7.43,7.43,0,0,0,4.28-1.46l1.43-.34a1.1,1.1,0,0,0,1.34,1,10.92,10.92,0,0,0,2.36-1.4l.5-.33a8.45,8.45,0,0,0,1.79-.63,1.54,1.54,0,0,0,.68-.72,4.9,4.9,0,0,0,.12.71l0,.11a14.62,14.62,0,0,0-1.21,1.65m1.13-4a1.14,1.14,0,0,0-.14-.24l.24-.17c0,.14-.07.27-.1.41"/><polyline class="cls-5" points="729.5 750.48 729.5 750.48 729.49 750.48 729.5 750.48 729.5 750.48"/><path class="cls-5" d="M770.34,712.17l.29-.21.13-.12c.45-.27.91-.51,1.35-.81,1-.67.34-2.62-.81-2.12l-.09,0a.82.82,0,0,0-.62-.5l-.46-.06a.87.87,0,0,0-.67-.22,11.14,11.14,0,0,0-2.61.74,1.07,1.07,0,0,0-.75,1.08,1.16,1.16,0,0,0,0,1.43,1.42,1.42,0,0,0-.1.21,5.63,5.63,0,0,0-1.43-1.36,3.37,3.37,0,0,0-2-.92.89.89,0,0,0-.89.51,15.72,15.72,0,0,0-3.22-.54,16.46,16.46,0,0,0-7.58.94,1,1,0,0,0-.28-.09,16.29,16.29,0,0,0-3,0,1.61,1.61,0,0,0-1.61.83,4.43,4.43,0,0,0-.17-.77,3.66,3.66,0,0,0-4.08-2.62,1.15,1.15,0,0,0-1,1.38,23.07,23.07,0,0,0-5-.22,1.06,1.06,0,0,0-.37.11,2.29,2.29,0,0,0-3,.36,2.9,2.9,0,0,0-.45,3.08,3.13,3.13,0,0,0-.12.81,27.21,27.21,0,0,0,.59,4.33,18.32,18.32,0,0,1,.12,3.3A10.32,10.32,0,0,0,733,725a23.08,23.08,0,0,1-2.08,2.16,17.15,17.15,0,0,0-1.61,1.82,5.25,5.25,0,0,0-1.48.32,4.92,4.92,0,0,0-2.94,3,15.23,15.23,0,0,0-1.24,1.06h0c.14-.18-.12,0,0,0-.36.08-.73.12-1.08.23a9.9,9.9,0,0,0-2.48,1.28c-3.15,2.13-3.69,6.06-3.69,9.8,0,1.46-.06,2.91,0,4.37s.21,3.07.15,4.61c-.21,5.13,5.24,6.45,8.85,6.68a11.8,11.8,0,0,0,2.71-.33l.7-.13c-.77.14.33,0,.49,0a10.44,10.44,0,0,0,5.17-1.58,11,11,0,0,0,1.59-1,10.79,10.79,0,0,0,1.32-1.2c.15-.16.52-.45.5-.44.89-.63,1.8-1.24,2.68-1.89a17.73,17.73,0,0,0,3.3-3q.24-.28.51-.53l.12-.13.08-.07c.76-.62,1.52-1.24,2.23-1.92.41-.4.8-.82,1.21-1.23l.17-.12c.24-.18.5-.34.75-.5a10.49,10.49,0,0,0,3.53-3.58,4.3,4.3,0,0,0,.23-.47,9.67,9.67,0,0,0,4.62-.39,4.72,4.72,0,0,0,1.9,2.53,4,4,0,0,0,3.34.48l1-.48a4.51,4.51,0,0,0,1.25-1.21,5.08,5.08,0,0,0,0-6.4,8.33,8.33,0,0,0-1.83-3l.75-.24a5,5,0,0,0,2.71-6.73,4.64,4.64,0,0,0,2.9-4.47,17.79,17.79,0,0,0-2.61-8.46c-.18-.28-.36-.55-.55-.81a1.22,1.22,0,0,0,.12-.19.87.87,0,0,0,.46.27,1.17,1.17,0,0,0,1.64,1c.92-.52,1.62.15,2.15,1a1.08,1.08,0,1,0,1.83-1.17,5.39,5.39,0,0,0-1.94-1.92m-31.67,11.28a6.61,6.61,0,0,0,.81,1,3.18,3.18,0,0,1-.81-1M757.46,726q-1.37.62-2.72,1.28l-1,.49-.56.26-1.27.54a2.56,2.56,0,0,0-1.56-1.47c.14-.42.26-.84.36-1.27.31-1.31.43-2.65.7-4q.06-.27.13-.53h0l.09-.16.14-.18a16.83,16.83,0,0,1,1.21-1.18c.24-.19.49-.35.74-.52l.22-.12.5-.16.43-.1h0a20,20,0,0,1,2.76-.09c.42,0,.84,0,1.25.09l.28.06.28.33c.15.26.29.53.43.8l.22.48,0,0c.16.45.28.92.39,1.39,0,.15.06.29.09.44v0a6,6,0,0,0,.51,2.1,31.12,31.12,0,0,0-3.64,1.42"/><path class="cls-5" d="M729.5,750.48c.54-.32-.41,0,0,0"/></g><g class="cls-3"><path class="cls-5" d="M772.25,738.7c.72-1.67,1.45-3.33,2.14-5s.47-2.07-.56-3.29a17.79,17.79,0,0,1-2.47-3.53c-2.42-4.91-5.36-9.3-9.66-12.44-.68-.5-1.36-.21-1.44.68a8,8,0,0,0,.07,1.15,8.65,8.65,0,0,0-4.58-2.61,7.65,7.65,0,0,0-8.12,4.67,9.25,9.25,0,0,0,1.55,9.94,7.23,7.23,0,0,0,9.16,1.38,3.87,3.87,0,0,1,1.76-.51c2.9-.15,4.65-2.76,3.64-5.7-.79-2.31-1.78-4.54-2.65-6.81a11,11,0,0,1-.35-1.5,9.49,9.49,0,0,1,2,1.38,15.79,15.79,0,0,1,2.84,2.37,57.31,57.31,0,0,1,3.9,6c1.24,2.16,1.83,4.79,4,6.3a1.66,1.66,0,0,1,.3,1.44c-.85,2.19-1.71,4.39-2.76,6.48-.67,1.33-1.6,1.33-2.77.55a10.16,10.16,0,0,0-2.48-1.13,18,18,0,0,0-2.79-.63,13.06,13.06,0,0,0-3.84-.43c-3.29.5-6.2-.66-9-2.19a8.7,8.7,0,0,1-2.35-2.09,2.13,2.13,0,0,1-.15-2.66c1.32,1.1,2.64,2.13,4.35,2.19-.84-.67-1.76-1.2-2.62-1.82s-1.79-1.36-1.62-2.8l2.41,1.94.17-.24c-.55-.55-1.12-1.09-1.65-1.67s-1.06-1.27-1.58-1.91l-.3.08c0,.66-.08,1.32-.11,2a11,11,0,0,1-.11,2.19,4.15,4.15,0,0,0,1.92,4.76,47.74,47.74,0,0,0,5.38,2.37,13.79,13.79,0,0,0,4.43.73,18.21,18.21,0,0,1,10.18,2.75,4,4,0,0,0,1.85.27,7.73,7.73,0,0,0,1.34-.2,23.68,23.68,0,0,0,3.71-7.16c.25-.79.55-1.1,1.37-.7,3.85,1.88,7.73,3.71,11.61,5.53a2.79,2.79,0,0,0,1.31.37,34.87,34.87,0,0,1,9.35.61,1.85,1.85,0,0,0,1.92-2.43,4.14,4.14,0,0,0-.43-1.05,6.49,6.49,0,0,1-.48-5.65c.77-2,1.61-4,2.42-6,.1-.24.18-.49.38-1l-.49.41c-2,1.94-2.72,4.62-3.42,7.3a7.83,7.83,0,0,0,.37,5.19,5.6,5.6,0,0,1,.36,1,10.6,10.6,0,0,1,.14,1.19,6.23,6.23,0,0,1-1.08-.07c-.55-.13-1.09-.52-1.61-.47-2.55.24-5.12-.77-7.67.11-.53.18-.84-.07-.89-.76-.11-1.58-.27-3.15-.43-4.73-.31-3.17-.66-6.41-2.76-8.82a4.4,4.4,0,0,1-.93-4.87,1.83,1.83,0,0,0,.05-.22c.23-1-1.15-3-2.06-2.79-1.19.34-2.68.38-3,2.22-.08.45-.32.87-.4,1.32-.35,1.95-.68,3.9-1,6.07l-6-10.78-.39.25q2.79,5.56,5.59,11.11a1.82,1.82,0,0,0,.51.58c.62.49,1.19.22,1.27-.61,0-.5,0-1,0-1.51.13-1.54.3-3.08.48-4.9a32.51,32.51,0,0,1,2.44,2.22,2.22,2.22,0,0,1,.58,1.46c-.35,3.63-.79,7.25-1.23,11.13l-5.84-3.21a16.13,16.13,0,0,1-3.05,7.29"/><path class="cls-5" d="M738.26,715.93v.28l1,.07c1.51.14,3,.19,4.52.46,2.19.4,2.14.45,1.46,2.71-.23.77-.61,1-1.28,1.06-1.13,0-2.26,0-3.38.1-1.54.12-3.07.33-4.61.49l0,.5h1.07c2.38,0,4.77,0,7.15.05a1.25,1.25,0,0,1,1,.51c.49.91-.69,3.17-1.66,3.23-1.54.09-3.09.1-4.63.19a7.72,7.72,0,0,0-1.3.3l.06.39c1.88,0,3.76,0,5.64,0,1.57,0,2,.58,1.34,2.16a1.77,1.77,0,0,1-1,.88,10.41,10.41,0,0,1-2.28.44c-.9.09-1.27.6-1.17,1.53a2.39,2.39,0,0,1-1.15,2.26,19.65,19.65,0,0,0-3.25,3.24c-1.3,1.74-1.27,1.86-3.29,1.27a10,10,0,0,1-1.1-.41,4.66,4.66,0,0,1-1.84-6.92c.84-1.28,1.59-2.64,2.39-4,.17-.27.35-.54.74-1.14.35,1.07.65,1.81.83,2.59.3,1.25.88,1.81,2,1.52-1.58-.55-1.56-2-1.91-3.22a27.29,27.29,0,0,1-.89-3.63c-.19-1.24-.16-2.51-.23-3.77a22.27,22.27,0,0,0-.46,3.46c-.26,3-1,4-3.55,4.84a4.49,4.49,0,0,0-2.84,2.37c-1,2-2.35,3.31-4.6,3.5-2.6.22-4.08,2-4.6,4.79a57.27,57.27,0,0,0,.21,19.57c.25,1.6,1.09,2.6,2.59,2.72,3.72.28,7.44.54,11.16.74a5.79,5.79,0,0,0,3.91-1.49A130.46,130.46,0,0,0,747.53,748a22.35,22.35,0,0,1,6.84-5.13c1.6-.72,2-.6,2.67,1.18,1.08,2.81,2.07,5.66,3.14,8.48,1.54,4.06,3.07,8.13,4.73,12.13a9.34,9.34,0,0,0,2.06,2.72c.34.35,1,.34,1.51.49l.14-.38c-.25-.45-.52-.9-.76-1.37a55.86,55.86,0,0,1-2.68-5.38c-1.32-3.49-2.43-7.07-3.66-10.6-1.17-3.36-2.39-6.7-4.72-9.36-.23-.26-.78-.51-1-.39-3.28,1.7-6.53,3.47-9.1,6.4a53.17,53.17,0,0,1-13.64,11.53,5.32,5.32,0,0,1-2.46.9c-3.3,0-6.6-.25-9.89-.47-1.46-.1-2.28-1.16-2.54-2.66a54.92,54.92,0,0,1-.79-5.6,39.18,39.18,0,0,1,.39-11.65c.54-2.36,1.76-3.88,4.05-4.25a6.2,6.2,0,0,0,4.24-3c.15-.23.33-.43.51-.66,0,1.57,0,3.06,0,4.54a2.44,2.44,0,0,0,.52,1.52,9.12,9.12,0,0,0,5,2.71,38,38,0,0,0,4.57,0l-4.31,9c1.22-.68,2.59-1.33,2.76-3.12a7.69,7.69,0,0,1,2.35-4.89,4.35,4.35,0,0,0,1-4.66c-.28-.9,0-1.24.63-1.58a2.46,2.46,0,0,0,1.63-2.54,1.32,1.32,0,0,1,1.14-1.62c.89-.22,1.79-.42,2.7-.56s1.19-.62,1.2-1.64a39.45,39.45,0,0,1,.93-9c.39-1.57.15-2.29-1.26-2.59-2.09-.44-4.24-.59-6.36-.82a2.64,2.64,0,0,0-.89.23"/><path class="cls-5" d="M769.09,742.81l-.07.49,1.08.65c4.35,2.61,8.78,5.08,12.58,8.63a15.74,15.74,0,0,0,4.72,3.42,10.31,10.31,0,0,1,2.07,1.14,56.41,56.41,0,0,0,15.71,7.77,60,60,0,0,0,11.6,2.3c3.56.36,6.49-2.78,6.89-6.65a19.85,19.85,0,0,0,.14-2.89c-.28-6.44-.44-12.89-.93-19.31-.41-5.26-1.25-10.48-1.84-15.73s-1-10.68-1.71-16c-.8-6.33-5-11.37-10.27-12.46a39.87,39.87,0,0,0-4.69-.81c-3-.26-6-.36-8.95-.52-.07,0-.14.12-.47.44a31.62,31.62,0,0,0,3.15.62c1.93.18,3.88.09,5.79.39a27.83,27.83,0,0,1,7,1.62c4.26,1.89,6.67,5.66,7.39,10.62.69,4.77,1.29,9.55,1.85,14.34.7,6.05,1.42,12.1,1.95,18.17.41,4.72.65,9.47.78,14.22a50,50,0,0,1-.38,8.06,4.74,4.74,0,0,1-4.59,4.43,10.1,10.1,0,0,1-1.9,0,47.78,47.78,0,0,1-18.83-5.58c-3.24-1.75-6.49-3.51-9.71-5.3a20.09,20.09,0,0,1-2-1.45c-2.39-1.76-4.75-3.58-7.19-5.26-2.65-1.82-5.36-3.53-8.06-5.25-.28-.18-.7-.09-1.06-.13"/><path class="cls-5" d="M754.25,688.52l0-.06,0,0h0v.09"/><path class="cls-5" d="M787,669.63c-1.26-1.23-1.14-3-1.7-4.52-.46-1.25-2.1-2.42-3.22-1.85-.73.37-1.17.26-1.37-.71-.55-2.7-.82-2.88-3.36-2.62h-.11c-.87.11-1.63,0-1.9-1.12,0-.2-.39-.51-.51-.47a5.18,5.18,0,0,1-2.91-.14c-.54-.12-.93-.13-1.28-.65-.49-.72-1.07-.63-1.7-.08.12.16.19.24.24.33l.59,1a5.85,5.85,0,0,1-1.24.15c-.2,0-.41-.29-.56-.5-.55-.75-1.06-1.29-1.78-.16-.14.23-.57.22-.85.37a3.05,3.05,0,0,0-1.11.71c-.53.74-.87.6-1.27-.09-.27-.47-.61-.9-.91-1.35.72,2.08.72,2.08-.26,2.52a3.37,3.37,0,0,0-.44-1,1.5,1.5,0,0,0-1-.55,1.09,1.09,0,0,0-.65.84c.06,1.25-.65,1.49-1.52,1.61l-1,.16c.59,1.22-.11,1.71-.86,1.81-1.07.15-1.81.49-2,1.77,0,.19-.27.5-.39.48-1.39-.15-1.65,1-2,2-.24.79-.3,1.65-.49,2.47-.12.49-.26,1.28-.55,1.38-1.24.41-1.35,1.83-2.18,2.62a3.58,3.58,0,0,0,1.12-.17,3.46,3.46,0,0,1,.68,0c0,.29.09.66,0,.86a2.32,2.32,0,0,0-.06,3.05.61.61,0,0,1,0,.52c-.37.6-.78,1.16-1.26,1.87.46.63,1,1.22,1.36,1.87s1.11.94.6,1.87c-.05.1.3.61.55.74a5.39,5.39,0,0,0,1.3.3,2.06,2.06,0,0,0,.6,3,6.22,6.22,0,0,1,.51.52,4.68,4.68,0,0,1,2.52,2.53c.47.83,1,1.62,1.48,2.43l.47.43a36.25,36.25,0,0,1-.63-3.71,8.66,8.66,0,0,0-.93-3.61,14.41,14.41,0,0,1-1.47-8.72c.28-2.25,1.41-3.19,3.49-3.13.95,0,1.9.08,2.85.17a4.36,4.36,0,0,0,3.74-1.51c1.82-1.93,3.65-3.85,5.44-5.82,1.53-1.68,3.1-1.76,4.69-.11.94,1,1.89,2,2.76,3,1.56,1.88,2.85,3.88,2.76,6.66a3.16,3.16,0,0,0,1,2,9.23,9.23,0,0,1,2.37,3.49,4,4,0,0,0,.45.74c.46-2.1.92-4.1,1.32-6.11s.73-3.83,1-5.77a2.5,2.5,0,0,0-.5-1.8"/><path class="cls-5" d="M758.23,693.4h0v0l0,0v0"/><path class="cls-5" d="M768.89,716.41c-.58-1.82-1.25-3.6-1.88-5.41-.26-.76-.46-1.34-.66-1.79a2.33,2.33,0,0,0,1.7.36c1.36-.07,1.36-2.39,0-2.32l-.3,0h-.14c-.21-.37-.3-.78-.55-1.14-.57-.84-1.31-1.52-1.89-2.35s-1.1-1.72-1.68-2.54l.1-.06c1.2-.7.14-2.71-1.07-2l-.23.13a1.13,1.13,0,0,0-1.32-1.11,8.14,8.14,0,0,0-2.11.91c-.61-.91-1.12-1.9-1.75-2.78a16,16,0,0,1-2.89-7.79c-.1.34-.31.71-.24,1,.79,2.82,1.35,5.74,3.46,7.89a5.71,5.71,0,0,1,1.05,1.89,8,8,0,0,1-1.44.63c-1.74.53-3.46,1.15-5.16,1.83-.51.2-1,.43-1.51.66a7.61,7.61,0,0,0-1.25.53,1,1,0,0,0-.27.21c-.53.27-1.06.55-1.58.84-1.51.84-3,2.07-4.66,2.49a1,1,0,0,0-.76,1,2.21,2.21,0,0,0-1.06.79l1.25,0a1,1,0,0,0,1.13.51,6.08,6.08,0,0,0,.71-.23,2.65,2.65,0,0,1,1.46,2.25,2.33,2.33,0,0,1-1.8,2.49,14.85,14.85,0,0,1-2.9.32,9.47,9.47,0,0,1-1.19-.08,3.63,3.63,0,0,0,4.14,1.3c2-.46,2.77-2,3-4.23,5.52-.11,10.93-.18,16.35-.34h0a1,1,0,0,0,.42.25,1,1,0,0,0,.67,0,2.13,2.13,0,0,1,1,1.43c.51,1.76,1.13,3.49,1.7,5.23.37,1.11,1.25,1.58,2.21,1s.13-1.17,0-1.69m-18.6-7.28.2-.12.12.11h-.32m15-1.26a1.1,1.1,0,0,0,.21-.19c.08.15.14.3.21.46a1.57,1.57,0,0,0-.42-.27"/><path class="cls-5" d="M757.32,694.13a8.35,8.35,0,0,0,1.44,2l.17-.22-.69-2.48c-.57-.14-1.21-.09-.91.73"/><path class="cls-5" d="M783,694.93a11,11,0,0,0-6.56,4,3.2,3.2,0,0,1-2.83,1.19,30,30,0,0,0-4,0,4.24,4.24,0,0,0-3.33,1.76A1.83,1.83,0,0,0,766,704c.58.71,1.38.44,2-.15a1.13,1.13,0,0,1,1.76,0,10.61,10.61,0,0,0,1.16.81,6,6,0,0,0,7.17-.06,9.7,9.7,0,0,0,3-3.92c.73-1.38,1.4-2.89,3.1-3.22.13,0,.31-.63.24-.89a2.8,2.8,0,0,0-1.93-2.27c-1.25-.37-2.45-.95-3.68-1.4-.5-.18-1-.28-1.55-.42.11.44.37.62.46.88.36,1.06,1.11,1.2,2,1.22,1.08,0,2.15.23,3.23.35"/><path class="cls-5" d="M783.19,715.62l10.34,6.8c1.64-2.69,1.58-15.85,1.12-20.24-.39,6.51.22,12.77-1.27,19l-9.28-5.63a5.91,5.91,0,0,1,.37-.79,39.27,39.27,0,0,0,4.26-9,15.23,15.23,0,0,0,.65-8.42c.15,7.12-2.56,12.78-6.19,18.34"/><path class="cls-5" d="M744,706c-1.57-.29-3,.91-3.73,2.39a1.36,1.36,0,0,0-.1.27c-2.1-.25-4.2-.55-6.31-.68a2.39,2.39,0,0,0-2.71,1.88,13.88,13.88,0,0,0,.83,5.68,7.92,7.92,0,0,0,.08-2c0-1-.14-2-.11-3a1.73,1.73,0,0,1,1.62-1.79,2.69,2.69,0,0,1,.74,0c2,.25,4,.47,5.95.76a1,1,0,0,0,1.73.27l.16,0c.62.11,1.63.77,1.65,1.21,0,1.08-1.06,1.13-1.76,1.14-1.43,0-2.85-.21-4.28-.34-.7-.06-1.4-.15-2.1-.23l0,.22c.86.17,1.72.29,2.57.51a7.58,7.58,0,0,0,5,.08c.68-.28,1.32-.71,1.25-1.64a1.7,1.7,0,0,0-1.51-1.66l-.51-.08a4.1,4.1,0,0,1,.31-.34,2.18,2.18,0,0,1,.49-.34s.24,0,.17-.05a1.07,1.07,0,0,0,1.3-.81A1.18,1.18,0,0,0,744,706"/><path class="cls-5" d="M798.76,743.27l.14-.38a12.72,12.72,0,0,0-2-.83c-3.13-.71-6.28-1.28-9.4-2.05-1.06-.26-1.49.07-1.73,1.1a19.39,19.39,0,0,1-2.92,7.1s0,.13.1.34a5.57,5.57,0,0,0,.66-.92c.76-1.72,1.58-3.42,2.2-5.2s1.06-2.23,2.76-1.38c.73.36,1.35,1,2.09,1.32a4.56,4.56,0,0,0,2.56.67c1.9-.47,3.71-.77,5.56.22"/><path class="cls-5" d="M767.93,688.53l.05-.37a3.75,3.75,0,0,0-1.25-.29c-1.64.2-3.29.42-4.91.78a2.26,2.26,0,0,0-1.81,2.58,4.52,4.52,0,0,0,.54,1.18c.33-.22.75-.37,1-.68a5.77,5.77,0,0,1,3.46-2.47l2.94-.71"/><path class="cls-5" d="M780.94,682.86c-1.14-1.11-3.18-1.27-4.05-.5s-1.8,1.44-2.7,2.16c-.33.27-.65.56-1,.84l.23.5a18.56,18.56,0,0,0,2.47-.89c1.48-.77,2.81-1.92,4.57-1.87.12,0,.24-.13.45-.25"/><path class="cls-5" d="M785.07,706.62c-.26.85-.47,1.73-.81,2.54a6.88,6.88,0,0,1-1.29,2.31,7.14,7.14,0,0,1-10.06,0,7.24,7.24,0,0,0-1-.64,5.9,5.9,0,0,0,6.76,3.42c3.94-.79,5.69-2.83,6.37-7.67"/><path class="cls-5" d="M812.48,703.91l-.37-.34c-3,4.21-6,8.38-8.92,12.66a24.84,24.84,0,0,0-1.84,4.19l.28.16a17.83,17.83,0,0,0,.87-1.63,25,25,0,0,1,4.26-7.11,29.17,29.17,0,0,0,1.92-2.45c1.28-1.81,2.53-3.65,3.79-5.48"/><path class="cls-5" d="M817.43,748.06c-.63-4.76-8.4-9.76-12.34-7.87,5.59-.14,9.58,2.7,12.34,7.87"/><path class="cls-5" d="M719.9,750.64l.3.27a12.77,12.77,0,0,0,1-1.31q2.6-4.53,5.15-9.09a5.66,5.66,0,0,0,.54-1.5,5.47,5.47,0,0,0,0-1.17l-.25-.05c-.52,2.52-2,4.36-3.43,6.27a5.46,5.46,0,0,0-.49,1.14c-.32.76-.59,1.55-1,2.26-.58,1.08-1.23,2.11-1.85,3.17"/><path class="cls-5" d="M780.76,685.92c-1.5-2-4.75-1.13-6.36,1.83H776l-.2-1.08a3.57,3.57,0,0,0,.84.38,2,2,0,0,0,1.24,0c.2-.12.16-.78.17-1.2,0-.19-.14-.38-.36-.9.65.15,1.27.11,1.4.37s0,.92-.06,1.3l1.73-.69"/><path class="cls-5" d="M806.12,698c-3.2,2.57-5.7,9.37-4.92,13.36A23.09,23.09,0,0,1,806.12,698"/><path class="cls-5" d="M762.67,692.45a2,2,0,0,0,.34-.33c.45-.79.88-1.39,1.79-.49.22.22,1,0,1.3-.24s.23-.9.41-1.78l.84,1.31,1.18-.87c-2.73-.93-5.55.25-5.86,2.39"/><path class="cls-5" d="M787.45,677.26a8.23,8.23,0,0,1,1.48,4.5c.13,1.87.25,3.75.37,5.62.11,1.58.7,3.31-1.28,4.21,1.49-.21,1.92-.81,1.8-2.41-.23-2.87-.46-5.74-.74-8.61a4.2,4.2,0,0,0-1.64-3.31"/><path class="cls-5" d="M787,685.61c1.27-1,1.41-1.9.43-3.18a.65.65,0,1,0-1.22.39,2.52,2.52,0,0,0,.16,1.07c.17.56.4,1.11.63,1.72"/><path class="cls-5" d="M788.27,686c1.06-1.2.38-6.38-1-7.93-.07.19-.23.39-.19.5.47,1.11,0,2.51,1,3.52a3,3,0,0,1,.45,1.73,15.11,15.11,0,0,1-.21,2.19"/><path class="cls-5" d="M777.41,745.36l1.3-1.53c-.39-.36-.78-1-1.16-1s-.88.61-1.32.95l1.17,1.6"/><path class="cls-5" d="M773.89,678l-.14-.37c-1,.52-2.07,1-3.08,1.57a33,33,0,0,1-3.14,1.87,21.6,21.6,0,0,1-3.5.83c4.09.5,6.59-2.78,9.86-3.89"/><path class="cls-5" d="M774.67,688.75c1,.93,3.79.81,4.74,0Z"/><path class="cls-5" d="M768.9,696.07l-.28-.18-2,4.68.28.15Z"/><path class="cls-5" d="M780.06,707.59a4,4,0,0,0-3.63,1.28l3.63-1.28"/><path class="cls-5" d="M768.22,691.61a5.21,5.21,0,0,1-4.57,2.48,4,4,0,0,0,4.57-2.48"/><path class="cls-5" d="M727.9,743.36l.78-.91c-.25-.25-.47-.66-.75-.7s-.5.37-.75.58l.72,1"/><path class="cls-5" d="M724.83,739.64l.58-.08c-.06-.48-.11-1-.19-1.44a1.83,1.83,0,0,0-.42.06c0,.49,0,1,0,1.46"/><path class="cls-5" d="M769,697c-.52,1.15-.23,1.93.84,2.2L769,697"/><path class="cls-7" d="M758.26,693.41c-.5-.82-1-1.62-1.49-2.45a4.68,4.68,0,0,0-2.53-2.53l0,0a7.23,7.23,0,0,0-.53-.55,2.06,2.06,0,0,1-.6-3,5.39,5.39,0,0,1-1.3-.3c-.25-.13-.6-.64-.55-.74.52-.93-.26-1.33-.6-1.87s-.9-1.25-1.36-1.87c.48-.7.89-1.27,1.26-1.87a.61.61,0,0,0,0-.52,2.32,2.32,0,0,1,.06-3.05c.13-.19,0-.57,0-.86a3.46,3.46,0,0,0-.68,0,3.59,3.59,0,0,1-1.12.17c.83-.8.94-2.21,2.18-2.62.29-.1.43-.88.55-1.38.2-.81.25-1.67.49-2.47.31-1,.58-2.19,2-2,.12,0,.37-.3.39-.48.18-1.27.92-1.62,2-1.77.75-.1,1.44-.6.86-1.82l1-.16c.87-.12,1.58-.37,1.52-1.61a1.09,1.09,0,0,1,.65-.84,1.5,1.5,0,0,1,1,.55,3.37,3.37,0,0,1,.44,1c1-.44,1-.44.26-2.52.31.45.64.88.91,1.35.4.69.74.82,1.27.09a3.05,3.05,0,0,1,1.11-.71c.28-.15.7-.14.85-.37.72-1.12,1.23-.59,1.78.16.15.21.36.49.56.5a5.85,5.85,0,0,0,1.24-.15l-.59-1c-.05-.09-.12-.17-.24-.33.63-.55,1.21-.64,1.7.08.35.52.74.53,1.28.65a5.18,5.18,0,0,0,2.91.14c.12,0,.46.27.51.47.28,1.15,1,1.23,1.9,1.12h.11c2.54-.26,2.81-.08,3.36,2.62.2,1,.64,1.08,1.37.71,1.12-.57,2.76.6,3.22,1.85.55,1.5.44,3.29,1.7,4.52a2.5,2.5,0,0,1,.5,1.8c-.23,1.94-.59,3.86-1,5.77s-.86,4-1.32,6.11a4,4,0,0,1-.45-.74,9.22,9.22,0,0,0-2.37-3.49,3.16,3.16,0,0,1-1-2c.09-2.77-1.2-4.77-2.76-6.66-.88-1.05-1.82-2-2.76-3-1.59-1.65-3.16-1.57-4.69.11-1.79,2-3.62,3.88-5.44,5.82a4.36,4.36,0,0,1-3.74,1.51c-.95-.09-1.9-.14-2.85-.17-2.07-.07-3.21.87-3.49,3.13a14.41,14.41,0,0,0,1.47,8.72,8.66,8.66,0,0,1,.93,3.61,36.36,36.36,0,0,0,.63,3.71l-.5-.45,0,0"/><path class="cls-7" d="M772.25,738.7a16.13,16.13,0,0,0,3.05-7.29l5.84,3.21c.44-3.88.88-7.5,1.23-11.13a2.22,2.22,0,0,0-.58-1.46,32.51,32.51,0,0,0-2.44-2.22c-.18,1.82-.35,3.35-.48,4.9,0,.5.05,1,0,1.51-.08.84-.64,1.1-1.27.61a1.82,1.82,0,0,1-.51-.58q-2.8-5.55-5.59-11.11l.39-.25,6,10.78c.37-2.17.7-4.12,1-6.07.08-.45.31-.87.4-1.32.34-1.84,1.83-1.88,3-2.22.91-.26,2.29,1.77,2.06,2.79a1.83,1.83,0,0,1-.05.22,4.4,4.4,0,0,0,.93,4.87c2.1,2.41,2.45,5.64,2.76,8.82.15,1.57.32,3.15.43,4.73,0,.69.36.94.89.76,2.55-.88,5.11.13,7.67-.11.52,0,1.07.34,1.61.47a6.21,6.21,0,0,0,1.08.07,10.55,10.55,0,0,0-.14-1.19,5.58,5.58,0,0,0-.36-1,7.83,7.83,0,0,1-.37-5.19c.7-2.69,1.4-5.36,3.42-7.3l.49-.41c-.2.54-.28.79-.38,1-.81,2-1.66,4-2.42,6a6.49,6.49,0,0,0,.48,5.65,4.14,4.14,0,0,1,.43,1.05,1.85,1.85,0,0,1-1.92,2.43,34.87,34.87,0,0,0-9.35-.61,2.79,2.79,0,0,1-1.31-.37c-3.88-1.83-7.76-3.65-11.61-5.53-.83-.4-1.12-.09-1.37.7a23.68,23.68,0,0,1-3.71,7.16,7.73,7.73,0,0,1-1.34.2,4,4,0,0,1-1.85-.27,18.21,18.21,0,0,0-10.18-2.75,13.8,13.8,0,0,1-4.43-.73,47.77,47.77,0,0,1-5.38-2.37,4.15,4.15,0,0,1-1.92-4.76,11,11,0,0,0,.11-2.19c0-.66.07-1.32.11-2l.3-.08c.53.64,1,1.3,1.58,1.91s1.1,1.11,1.65,1.67l-.17.24-2.41-1.94c-.17,1.44.73,2.15,1.62,2.8s1.78,1.15,2.62,1.82c-1.71-.06-3-1.09-4.35-2.19a2.13,2.13,0,0,0,.15,2.66,8.7,8.7,0,0,0,2.35,2.09c2.83,1.53,5.73,2.69,9,2.19a13.05,13.05,0,0,1,3.84.43,18,18,0,0,1,2.79.63,10.15,10.15,0,0,1,2.48,1.13c1.17.78,2.1.78,2.77-.55,1-2.08,1.91-4.28,2.76-6.48a1.66,1.66,0,0,0-.3-1.44c-2.14-1.51-2.73-4.14-4-6.3a57.33,57.33,0,0,0-3.9-6,15.79,15.79,0,0,0-2.84-2.37,9.49,9.49,0,0,0-2-1.38,10.93,10.93,0,0,0,.35,1.5c.87,2.28,1.87,4.5,2.65,6.81,1,2.94-.74,5.55-3.64,5.7a3.87,3.87,0,0,0-1.76.51,7.23,7.23,0,0,1-9.16-1.38,9.25,9.25,0,0,1-1.55-9.94,7.65,7.65,0,0,1,8.12-4.67,8.65,8.65,0,0,1,4.58,2.61,8,8,0,0,1-.07-1.15c.08-.9.76-1.18,1.44-.68,4.29,3.15,7.23,7.53,9.66,12.44a17.78,17.78,0,0,0,2.47,3.53c1,1.22,1.22,1.72.56,3.29s-1.43,3.34-2.14,5m-17.76-23.59c-3.59,0-6.39,3.1-6.4,7.08s2.84,7.11,6.39,7.12,6.47-3.13,6.49-7.15c0-3.86-2.91-7-6.47-7m5.38,13.34a3.47,3.47,0,0,0,3.63-4.4c-.25-1.05-.68-2.05-1-3.08a10.58,10.58,0,0,1-2.61,7.47"/><path class="cls-7" d="M768.48,767.86c-.51-.15-1.17-.14-1.51-.49a9.34,9.34,0,0,1-2.06-2.72c-1.66-4-3.19-8.07-4.73-12.13-1.07-2.82-2.06-5.67-3.14-8.48-.69-1.78-1.07-1.9-2.67-1.18a22.34,22.34,0,0,0-6.84,5.13,130.5,130.5,0,0,1-13.24,11.66,5.8,5.8,0,0,1-3.91,1.49c-3.72-.2-7.44-.46-11.16-.74-1.51-.11-2.34-1.12-2.59-2.72a57.26,57.26,0,0,1-.21-19.57c.52-2.78,2-4.57,4.6-4.79,2.25-.19,3.6-1.52,4.6-3.5a4.49,4.49,0,0,1,2.84-2.37c2.57-.82,3.3-1.86,3.55-4.84a22.24,22.24,0,0,1,.46-3.46c.07,1.26,0,2.53.23,3.77a27.32,27.32,0,0,0,.89,3.63c.35,1.21.33,2.66,1.91,3.22-1.13.29-1.72-.28-2-1.52-.19-.78-.48-1.52-.83-2.59-.39.6-.57.86-.74,1.14-.8,1.32-1.55,2.67-2.39,4a4.66,4.66,0,0,0,1.84,6.92,10,10,0,0,0,1.1.41c2,.59,2,.47,3.29-1.27a19.65,19.65,0,0,1,3.25-3.24,2.39,2.39,0,0,0,1.15-2.26c-.1-.93.27-1.44,1.17-1.53a10.42,10.42,0,0,0,2.28-.44,1.77,1.77,0,0,0,1-.88c.64-1.58.23-2.18-1.34-2.16-1.88,0-3.76,0-5.64,0l-.06-.39a7.69,7.69,0,0,1,1.3-.3c1.54-.09,3.09-.1,4.63-.19,1-.05,2.16-2.31,1.66-3.23a1.25,1.25,0,0,0-1-.51c-2.38-.05-4.77,0-7.15-.05H736l0-.5c1.53-.17,3.07-.37,4.61-.5,1.12-.09,2.25-.08,3.38-.1.67,0,1-.29,1.28-1.06.68-2.26.74-2.31-1.46-2.71-1.49-.27-3-.32-4.52-.46l-1-.07v-.28a2.63,2.63,0,0,1,.89-.23c2.13.23,4.27.38,6.36.82,1.41.3,1.65,1,1.26,2.59a39.48,39.48,0,0,0-.93,9c0,1-.3,1.49-1.2,1.64s-1.8.35-2.7.56a1.32,1.32,0,0,0-1.14,1.62,2.46,2.46,0,0,1-1.63,2.54c-.66.34-.92.68-.63,1.58a4.35,4.35,0,0,1-1,4.66,7.69,7.69,0,0,0-2.35,4.89c-.17,1.78-1.54,2.44-2.76,3.12l4.31-9a38,38,0,0,1-4.57,0,9.12,9.12,0,0,1-5-2.71,2.44,2.44,0,0,1-.52-1.52c-.07-1.48,0-3,0-4.54-.18.23-.36.43-.51.66a6.2,6.2,0,0,1-4.24,3c-2.29.37-3.51,1.89-4.05,4.25a39.18,39.18,0,0,0-.39,11.65,54.92,54.92,0,0,0,.79,5.6c.26,1.5,1.08,2.56,2.54,2.66,3.29.22,6.59.42,9.89.47a5.33,5.33,0,0,0,2.46-.9,53.17,53.17,0,0,0,13.64-11.53c2.57-2.93,5.82-4.7,9.1-6.4.24-.12.79.13,1,.39,2.33,2.65,3.55,6,4.72,9.36,1.23,3.53,2.33,7.12,3.66,10.6a55.83,55.83,0,0,0,2.68,5.38c.24.46.5.91.76,1.37l-.14.38"/><path class="cls-7" d="M823.82,757.67c-.28-6.44-.44-12.89-.93-19.31-.41-5.26-1.25-10.48-1.84-15.73s-1-10.68-1.71-16c-.8-6.33-5-11.37-10.27-12.46a39.83,39.83,0,0,0-4.69-.81c-3-.26-6-.36-8.95-.52-.07,0-.14.12-.47.44a31.57,31.57,0,0,0,3.15.62c1.93.18,3.88.1,5.79.39a27.82,27.82,0,0,1,7,1.62c4.26,1.89,6.67,5.66,7.39,10.62.69,4.77,1.29,9.55,1.85,14.34.7,6.05,1.42,12.1,1.95,18.17.41,4.72.65,9.47.78,14.22a50,50,0,0,1-.38,8.06,4.74,4.74,0,0,1-4.59,4.43,10.12,10.12,0,0,1-1.9,0,47.78,47.78,0,0,1-18.83-5.58c-3.24-1.75-6.49-3.51-9.71-5.3a20.07,20.07,0,0,1-2-1.45c-2.39-1.76-4.75-3.58-7.19-5.26-2.65-1.82-5.36-3.53-8.06-5.25-.28-.18-.7-.09-1.06-.13l-.07.49,1.08.65c4.35,2.61,8.78,5.08,12.58,8.63a15.74,15.74,0,0,0,4.72,3.42,10.32,10.32,0,0,1,2.07,1.14,56.4,56.4,0,0,0,15.71,7.77q1.23.38,2.49.7h0l.21.06a61.71,61.71,0,0,0,8.9,1.55c3.56.36,6.49-2.78,6.89-6.65a19.91,19.91,0,0,0,.14-2.89"/><path class="cls-7" d="M746.61,710.55c-.2,2.2-1,3.77-3,4.23a3.63,3.63,0,0,1-4.14-1.3,9.46,9.46,0,0,0,1.19.08,14.84,14.84,0,0,0,2.9-.32,2.33,2.33,0,0,0,1.8-2.49,2.6,2.6,0,0,0-2.26-2.49,18,18,0,0,0-2.28,0,2.19,2.19,0,0,1,2.81-.66,3.9,3.9,0,0,1,1.35.89,2.45,2.45,0,0,0,2.71.77,8.87,8.87,0,0,1,2.42-.11,1.74,1.74,0,0,0,2-1.3c.72-2.37,2.21-3.13,4.35-2.79a3.65,3.65,0,0,0,1.26,0,3,3,0,0,1,3.49,1.82,1.85,1.85,0,0,0,1.39.74c3.24.14,3.24.11,4.4,3.45.62,1.8,1.3,3.59,1.88,5.41.17.52.87,1.2,0,1.69s-1.84.09-2.21-1c-.57-1.74-1.19-3.47-1.7-5.23-.34-1.16-.89-1.67-2.06-1.63-5.41.16-10.83.24-16.35.34"/><path class="cls-7" d="M783,694.93c-1.08-.12-2.15-.32-3.23-.35-.91,0-1.65-.16-2-1.22-.09-.25-.35-.43-.46-.88.52.14,1,.23,1.55.42,1.23.45,2.43,1,3.68,1.4a2.8,2.8,0,0,1,1.92,2.26c.07.27-.11.87-.24.9-1.7.33-2.37,1.84-3.1,3.22a9.7,9.7,0,0,1-3,3.92,6,6,0,0,1-7.17.06,10.61,10.61,0,0,1-1.16-.81,1.13,1.13,0,0,0-1.76,0c-.61.59-1.4.86-2,.15a1.83,1.83,0,0,1,.25-2.24,4.24,4.24,0,0,1,3.33-1.76,30.06,30.06,0,0,1,4,0,3.2,3.2,0,0,0,2.83-1.18,11,11,0,0,1,6.56-4m-12.81,7.76a4.32,4.32,0,0,0,5.23,2c3.2-.87,4.82-3.55,6.26-6.53-1.49.73-2.89,1.63-4.36,2.4a19.27,19.27,0,0,1-3.48,1.47,29.54,29.54,0,0,1-3.65.61"/><path class="cls-7" d="M783.19,715.62c3.63-5.55,6.35-11.22,6.19-18.34a15.23,15.23,0,0,1-.65,8.42,39.27,39.27,0,0,1-4.26,9,5.91,5.91,0,0,0-.37.79l9.28,5.63c1.48-6.19.88-12.45,1.27-19,.46,4.39.52,17.54-1.12,20.24l-10.34-6.8"/><path class="cls-7" d="M735.62,711.56c.7.08,1.4.16,2.1.23,1.43.13,2.85.35,4.28.34.7,0,1.79-.06,1.76-1.14,0-.44-1-1.1-1.65-1.21-2.6-.45-5.22-.73-7.84-1.06a2.69,2.69,0,0,0-.74,0,1.73,1.73,0,0,0-1.62,1.79c0,1,.07,2,.11,3a7.93,7.93,0,0,1-.08,2,13.88,13.88,0,0,1-.83-5.68,2.39,2.39,0,0,1,2.71-1.88c2.21.13,4.4.46,6.6.72.84.1,1.68.21,2.51.36a1.7,1.7,0,0,1,1.51,1.66c.07.93-.58,1.35-1.25,1.64a7.58,7.58,0,0,1-5-.08c-.85-.22-1.71-.34-2.56-.51l0-.22"/><path class="cls-7" d="M798.76,743.27c-1.84-1-3.66-.7-5.56-.22a4.56,4.56,0,0,1-2.56-.67c-.74-.32-1.36-1-2.09-1.32-1.7-.85-2.08-.55-2.76,1.38s-1.44,3.48-2.2,5.2a5.57,5.57,0,0,1-.66.92c-.07-.21-.13-.31-.1-.34a19.39,19.39,0,0,0,2.92-7.1c.24-1,.67-1.36,1.73-1.1,3.12.77,6.27,1.34,9.4,2.05a12.72,12.72,0,0,1,2,.83Z"/><path class="cls-7" d="M767.93,688.53l-2.94.71a5.77,5.77,0,0,0-3.46,2.47c-.22.32-.64.46-1,.68a4.52,4.52,0,0,1-.54-1.18,2.26,2.26,0,0,1,1.81-2.58c1.62-.36,3.26-.57,4.91-.78a3.75,3.75,0,0,1,1.25.29l-.05.37"/><path class="cls-7" d="M780.94,682.86c-.21.12-.33.25-.45.25-1.76,0-3.09,1.1-4.57,1.87a18.56,18.56,0,0,1-2.47.89l-.23-.5c.32-.28.63-.58,1-.84.9-.72,1.84-1.39,2.7-2.16s2.91-.61,4.05.5"/><path class="cls-7" d="M785.07,706.62c-.67,4.83-2.43,6.88-6.37,7.67a5.9,5.9,0,0,1-6.76-3.42,7.24,7.24,0,0,1,1,.64,7.14,7.14,0,0,0,10.06,0,6.88,6.88,0,0,0,1.29-2.31c.34-.81.55-1.69.81-2.54"/><path class="cls-7" d="M812.48,703.91c-1.26,1.83-2.51,3.67-3.79,5.48a29.17,29.17,0,0,1-1.92,2.45,25,25,0,0,0-4.26,7.11,17.83,17.83,0,0,1-.87,1.63l-.28-.16a24.84,24.84,0,0,1,1.84-4.19c2.9-4.28,5.94-8.45,8.92-12.66Z"/><path class="cls-7" d="M817.43,748.06c-2.75-5.18-6.75-8-12.34-7.87,3.93-1.88,11.71,3.11,12.34,7.87"/><path class="cls-7" d="M719.9,750.64c.62-1.05,1.28-2.08,1.85-3.17.38-.72.65-1.51,1-2.26a5.46,5.46,0,0,1,.49-1.14c1.41-1.91,2.91-3.76,3.43-6.27l.25.05a5.47,5.47,0,0,1,0,1.17,5.66,5.66,0,0,1-.54,1.5q-2.55,4.56-5.15,9.09a12.77,12.77,0,0,1-1,1.31l-.3-.27"/><path class="cls-7" d="M780.76,685.92l-1.73.69c0-.37.23-.95.06-1.3s-.75-.22-1.4-.37c.21.52.36.71.36.9,0,.42,0,1.07-.17,1.2a2,2,0,0,1-1.24,0,3.57,3.57,0,0,1-.84-.38l.2,1.08H774.4c1.61-3,4.86-3.87,6.36-1.83"/><path class="cls-7" d="M806.12,698a23.09,23.09,0,0,0-4.92,13.36c-.78-4,1.72-10.79,4.92-13.36"/><path class="cls-7" d="M754.24,688.43a16,16,0,0,0,2.9,7.89c.75,1,1.33,2.24,2.09,3.26a19.18,19.18,0,0,0,1.9,2c-.91.17-1.93-.59-2.46-1.9a6.87,6.87,0,0,0-1.2-2.25c-2.12-2.15-2.68-5.08-3.46-7.89-.08-.29.16-.7.26-1l0,0"/><path class="cls-7" d="M762.67,692.45c.31-2.14,3.13-3.32,5.86-2.39l-1.18.87-.84-1.31c-.18.88-.15,1.53-.41,1.78s-1.08.45-1.3.24c-.91-.91-1.34-.31-1.79.49a2,2,0,0,1-.34.33"/><path class="cls-7" d="M787.45,677.26a4.2,4.2,0,0,1,1.64,3.31c.28,2.87.51,5.74.74,8.61.13,1.61-.31,2.2-1.8,2.41,2-.89,1.38-2.63,1.28-4.21-.13-1.87-.25-3.75-.37-5.62a8.23,8.23,0,0,0-1.48-4.5"/><path class="cls-7" d="M787,685.61c-.23-.61-.45-1.15-.63-1.72a2.52,2.52,0,0,1-.16-1.07.65.65,0,1,1,1.22-.39c1,1.27.85,2.18-.43,3.18"/><path class="cls-7" d="M788.27,686a15.11,15.11,0,0,0,.21-2.19,3,3,0,0,0-.45-1.73c-1-1-.51-2.4-1-3.52,0-.1.11-.31.19-.5,1.41,1.55,2.09,6.73,1,7.93"/><path class="cls-7" d="M777.41,745.36l-1.17-1.6c.44-.34.87-.94,1.32-.95s.77.65,1.16,1l-1.3,1.53"/><path class="cls-7" d="M773.89,678c-3.26,1.11-5.76,4.39-9.86,3.89a21.6,21.6,0,0,0,3.5-.83,33,33,0,0,0,3.14-1.87c1-.57,2-1.05,3.08-1.57l.14.37"/><path class="cls-7" d="M758.26,693.41l0,0,.7,2.51-.17.22a8.35,8.35,0,0,1-1.44-2c-.3-.83.36-.87.94-.72"/><path class="cls-7" d="M774.67,688.75h4.74c-1,.81-3.7.93-4.74,0"/><path class="cls-7" d="M768.9,696.07l-2,4.65-.28-.15,2-4.68.28.18"/><path class="cls-7" d="M780.06,707.59l-3.63,1.28a4,4,0,0,1,3.63-1.28"/><path class="cls-7" d="M768.22,691.61a4,4,0,0,1-4.57,2.48,5.21,5.21,0,0,0,4.57-2.48"/><path class="cls-7" d="M727.9,743.36l-.72-1c.25-.21.53-.61.75-.58s.5.45.75.7l-.78.91"/><path class="cls-7" d="M724.83,739.64c0-.49,0-1,0-1.46a1.83,1.83,0,0,1,.42-.06c.08.48.13,1,.19,1.44l-.58.08"/><path class="cls-7" d="M769,697l.84,2.2c-1.07-.27-1.36-1.05-.84-2.2"/><path class="cls-5" d="M754.49,715.11c3.56,0,6.49,3.18,6.47,7,0,4-2.85,7.15-6.49,7.15s-6.4-3.17-6.39-7.12,2.81-7.07,6.4-7.08m3.78,7.06a2.91,2.91,0,1,0-2.93,3.11,3,3,0,0,0,2.93-3.11"/><path class="cls-5" d="M759.87,728.45a10.58,10.58,0,0,0,2.61-7.47c.35,1,.77,2,1,3.08a3.47,3.47,0,0,1-3.63,4.4"/><path class="cls-5" d="M770.2,702.69a29.54,29.54,0,0,0,3.65-.61,19.27,19.27,0,0,0,3.48-1.47c1.46-.77,2.86-1.68,4.36-2.4-1.44,3-3.05,5.66-6.26,6.53a4.32,4.32,0,0,1-5.23-2"/><path class="cls-7" d="M758.27,722.16a2.91,2.91,0,1,1-2.86-3.21,3.09,3.09,0,0,1,2.86,3.21"/></g></g><path class="cls-2" d="M1055,895.14a7.82,7.82,0,0,1-.73,3.35,9.72,9.72,0,0,1-1.94,2.77,8.94,8.94,0,0,1-2.84,1.9,8.66,8.66,0,0,1-3.42.69,8.18,8.18,0,0,1-3.35-.69,8.74,8.74,0,0,1-2.73-1.9,9.45,9.45,0,0,1-1.87-2.77,8.15,8.15,0,0,1-.69-3.35,8.64,8.64,0,0,1,.69-3.42,9.17,9.17,0,0,1,1.87-2.84,8.72,8.72,0,0,1,2.73-1.9,8.18,8.18,0,0,1,3.35-.69,8.66,8.66,0,0,1,3.42.69,8.92,8.92,0,0,1,2.84,1.9,9.41,9.41,0,0,1,1.94,2.84,8.29,8.29,0,0,1,.73,3.42m-2.63,92H1040.1V917.13h12.31Z"/><path class="cls-2" d="M985.32,885.32V987.19H978a3.14,3.14,0,0,1-3.32-2.56l-1.11-8.51a38.14,38.14,0,0,1-10.23,8.71,26,26,0,0,1-13.28,3.32,25.27,25.27,0,0,1-10.93-2.32,22.62,22.62,0,0,1-8.37-6.81,32.42,32.42,0,0,1-5.33-11.2,57.66,57.66,0,0,1-1.87-15.42A48.35,48.35,0,0,1,925.64,938a35.54,35.54,0,0,1,5.95-11.58,27.6,27.6,0,0,1,9.51-7.71,28.12,28.12,0,0,1,12.69-2.8,25.61,25.61,0,0,1,11,2.18,26.74,26.74,0,0,1,8.19,6.05v-38.8ZM973,933.8a19.9,19.9,0,0,0-7.47-6.46,21.4,21.4,0,0,0-9-1.83q-9.75,0-15,7t-5.26,19.92a50.58,50.58,0,0,0,1.18,11.72,22.55,22.55,0,0,0,3.46,8,13.56,13.56,0,0,0,5.6,4.6,18.62,18.62,0,0,0,7.54,1.45,20,20,0,0,0,10.62-2.77,30.42,30.42,0,0,0,8.33-7.81Z"/><path class="cls-2" d="M873.29,917.13v70.06H866a3.14,3.14,0,0,1-3.32-2.56l-1-7.54a38.56,38.56,0,0,1-10.24,8.13,26.86,26.86,0,0,1-13,3.08,25.3,25.3,0,0,1-10.13-1.9,20,20,0,0,1-7.37-5.36,22.74,22.74,0,0,1-4.46-8.37A37.39,37.39,0,0,1,815,961.81V917.13H827.3v44.68q0,8,3.63,12.31t11.1,4.36a20.89,20.89,0,0,0,10.2-2.59,32.37,32.37,0,0,0,8.75-7.16V917.13Z"/><path class="cls-2" d="M753,988.3q-8.3,0-12.76-4.63t-4.46-13.35V927.44h-8.44a2.74,2.74,0,0,1-1.87-.66,2.55,2.55,0,0,1-.76-2v-4.91l11.48-1.45,2.84-21.65A3,3,0,0,1,740,895a2.73,2.73,0,0,1,1.9-.66h6.23v24.14h20.26v8.92H748.12v42q0,4.43,2.14,6.57a7.49,7.49,0,0,0,5.53,2.14,9.82,9.82,0,0,0,3.35-.52,14.51,14.51,0,0,0,2.46-1.14q1-.62,1.76-1.14a2.32,2.32,0,0,1,1.28-.52,2.12,2.12,0,0,1,1.73,1.18l3.6,5.88a22.93,22.93,0,0,1-7.68,4.67,26.07,26.07,0,0,1-9.27,1.7"/><path class="cls-2" d="M677.85,928.68a2.73,2.73,0,0,1-2.56,1.52,4.78,4.78,0,0,1-2.35-.76q-1.32-.76-3.22-1.69A29.89,29.89,0,0,0,665.2,926a21.62,21.62,0,0,0-6.22-.8,18.37,18.37,0,0,0-5.6.8,13.44,13.44,0,0,0-4.25,2.18,9.66,9.66,0,0,0-2.7,3.22,8.64,8.64,0,0,0-.93,4,6.62,6.62,0,0,0,1.56,4.5,13.47,13.47,0,0,0,4.12,3.11,35.66,35.66,0,0,0,5.81,2.32q3.25,1,6.67,2.14t6.67,2.52a24.21,24.21,0,0,1,5.81,3.46,15.82,15.82,0,0,1,4.11,5.08,15.57,15.57,0,0,1,1.56,7.23,22.9,22.9,0,0,1-1.73,9,19.57,19.57,0,0,1-5.12,7.12,24.66,24.66,0,0,1-8.3,4.74,34.11,34.11,0,0,1-11.34,1.73A35.37,35.37,0,0,1,642,985.91a33.65,33.65,0,0,1-10.1-6.12l2.91-4.7a4.2,4.2,0,0,1,1.31-1.38,3.55,3.55,0,0,1,1.93-.48,4.63,4.63,0,0,1,2.63,1q1.38,1,3.35,2.15a25.5,25.5,0,0,0,4.81,2.14,22.08,22.08,0,0,0,7.05,1,19.18,19.18,0,0,0,6.29-.94,13.23,13.23,0,0,0,4.5-2.52,10,10,0,0,0,2.66-3.66,11.42,11.42,0,0,0,.86-4.43,7.35,7.35,0,0,0-1.55-4.81,13.16,13.16,0,0,0-4.12-3.25,33.61,33.61,0,0,0-5.84-2.35q-3.29-1-6.71-2.11t-6.71-2.52a23.53,23.53,0,0,1-5.84-3.56,16.1,16.1,0,0,1-4.11-5.29,17.12,17.12,0,0,1-1.56-7.64,18.64,18.64,0,0,1,1.66-7.71,18.92,18.92,0,0,1,4.84-6.5,23.8,23.8,0,0,1,7.81-4.46A31.27,31.27,0,0,1,658.69,916a33.49,33.49,0,0,1,12.41,2.18,29.41,29.41,0,0,1,9.51,6Z"/><polygon class="cls-2" points="587.74 976.27 587.67 987.19 526.6 987.19 526.6 888.09 587.67 888.09 587.67 899.02 540.02 899.02 540.02 931.93 578.61 931.93 578.61 942.45 540.02 942.45 540.02 976.27 587.74 976.27"/><path class="cls-2" d="M370.24,916a35.76,35.76,0,0,1,13.83,2.56,29.67,29.67,0,0,1,10.51,7.26,31.89,31.89,0,0,1,6.67,11.38,49.18,49.18,0,0,1,0,29.84,31.89,31.89,0,0,1-6.67,11.34,29.25,29.25,0,0,1-10.51,7.22,36.14,36.14,0,0,1-13.83,2.53,36.57,36.57,0,0,1-13.93-2.53,29.17,29.17,0,0,1-10.55-7.22,32,32,0,0,1-6.67-11.34,49.21,49.21,0,0,1,0-29.84,32,32,0,0,1,6.67-11.38,29.59,29.59,0,0,1,10.55-7.26A36.19,36.19,0,0,1,370.24,916m0,62.52q10.38,0,15.49-7t5.12-19.4q0-12.52-5.12-19.5t-15.49-7a21.7,21.7,0,0,0-9.16,1.8,17,17,0,0,0-6.5,5.19A23,23,0,0,0,350.7,941a44.63,44.63,0,0,0-1.28,11.17q0,12.45,5.15,19.4t15.66,7"/><path class="cls-2" d="M278.4,988.3q-8.3,0-12.76-4.63t-4.46-13.35V927.44h-8.44a2.75,2.75,0,0,1-1.87-.66,2.55,2.55,0,0,1-.76-2v-4.91l11.48-1.45,2.84-21.65a3,3,0,0,1,.93-1.7,2.73,2.73,0,0,1,1.9-.66h6.23v24.14h20.26v8.92H273.49v42q0,4.43,2.14,6.57a7.49,7.49,0,0,0,5.53,2.14,9.81,9.81,0,0,0,3.35-.52,14.48,14.48,0,0,0,2.46-1.14q1-.62,1.76-1.14a2.32,2.32,0,0,1,1.28-.52,2.12,2.12,0,0,1,1.73,1.18l3.6,5.88a22.92,22.92,0,0,1-7.68,4.67,26.08,26.08,0,0,1-9.27,1.7"/><path class="cls-2" d="M174.66,916a35.76,35.76,0,0,1,13.83,2.56A29.66,29.66,0,0,1,199,925.85a31.89,31.89,0,0,1,6.67,11.38,49.18,49.18,0,0,1,0,29.84A31.89,31.89,0,0,1,199,978.41a29.24,29.24,0,0,1-10.51,7.22,36.14,36.14,0,0,1-13.83,2.53,36.57,36.57,0,0,1-13.93-2.53,29.17,29.17,0,0,1-10.55-7.22,32,32,0,0,1-6.67-11.34,49.21,49.21,0,0,1,0-29.84,32,32,0,0,1,6.67-11.38,29.59,29.59,0,0,1,10.55-7.26A36.19,36.19,0,0,1,174.66,916m0,62.52q10.38,0,15.49-7t5.12-19.4q0-12.52-5.12-19.5t-15.49-7a21.71,21.71,0,0,0-9.16,1.8,17,17,0,0,0-6.5,5.19,23,23,0,0,0-3.87,8.33,44.63,44.63,0,0,0-1.28,11.17q0,12.45,5.15,19.4t15.66,7"/><polygon class="cls-2" points="54.68 899.02 54.68 933.66 95.41 933.66 95.41 944.59 54.68 944.59 54.68 987.19 41.26 987.19 41.26 888.09 102.33 888.09 102.33 899.02 54.68 899.02"/><path class="cls-2" d="M808.94,647.62q14-6.3,24.49-2.29t16,15.47q5.58,11.46,6.16,28.93t-4.87,38.39a141.26,141.26,0,0,1-17.62,41.25,125.33,125.33,0,0,1-26.5,30.08q9.74,11.75,18.91,17.48a61.36,61.36,0,0,0,17,7.73,36.46,36.46,0,0,0,14.47,1,40.55,40.55,0,0,0,10.88-3,19.76,19.76,0,0,1,.29,11A27.26,27.26,0,0,1,863.8,843a26.16,26.16,0,0,1-7.16,6.59,17.91,17.91,0,0,1-8.16,2.86q-10.31.86-17.91-3.87a51.33,51.33,0,0,1-13.32-12,108,108,0,0,1-10.31-15.9q-4.59-8.59-8.59-15.18-21.21,13.75-42.68,13.75-22.06,0-39-16.33a33.94,33.94,0,0,0-4.58,8.17,41.84,41.84,0,0,0-2,7,19.64,19.64,0,0,0-.57,6.59q-7.74,1.14-13-2.29a17.6,17.6,0,0,1-7.31-9.31,23.55,23.55,0,0,1-.28-13.18,30.21,30.21,0,0,1,8-13.9l4.58-4.3a93.74,93.74,0,0,1-8.45-28.93,117.53,117.53,0,0,1,1-34.95q4.29-24.63,13.75-43.54A128.08,128.08,0,0,1,730,642.18a94.94,94.94,0,0,1,28.07-20.34,83.71,83.71,0,0,1,31.08-8q16.33-1.14,25.5,5.3t7.16,21.34a72.38,72.38,0,0,0-31.37,0,76.18,76.18,0,0,0-27.64,12.46A98,98,0,0,0,740.19,676a120.12,120.12,0,0,0-16,32.08,149.75,149.75,0,0,0-6.44,31.66,100.94,100.94,0,0,0,1.58,31.08,66.49,66.49,0,0,1,19.91-4.44,71.38,71.38,0,0,1,20.62,1.58,78.9,78.9,0,0,1,19.63,7.3,76,76,0,0,1,17.19,12.46,103.06,103.06,0,0,0,16.33-27.22,207.66,207.66,0,0,0,10.6-32.94,147.1,147.1,0,0,0,4-30.08,105.51,105.51,0,0,0-2-24.49,51,51,0,0,0-6.73-17.19q-4.44-6.73-9.88-8.17M756.52,808a46,46,0,0,0,17.76-3.44,51.51,51.51,0,0,0,15.18-9.74A72.38,72.38,0,0,0,775.14,785a41.32,41.32,0,0,0-15.47-4.58,42.08,42.08,0,0,0-16.33,1.86A46.43,46.43,0,0,0,727,791.71a38,38,0,0,0,12.18,11.89A32.69,32.69,0,0,0,756.52,808"/><path class="cls-2" d="M985.69,756.48q5.16-11.74,8-11.46t-2.29,11.46q-1.44,3.16-4.3,9.17T980.25,779q-4,7.3-9,14.61a86.82,86.82,0,0,1-10.89,13,46.8,46.8,0,0,1-12.46,8.88,20.64,20.64,0,0,1-13.46,1.72q-12-2.29-16.19-12.17t-3-24.78a134.43,134.43,0,0,1-8,14.32,79.13,79.13,0,0,1-9.88,12.6,41.35,41.35,0,0,1-11.46,8.45,19.72,19.72,0,0,1-13,1.57q-12.89-2.29-17.33-14.61t-2.29-30.08q2.15-17.76,10.17-38.39a248.71,248.71,0,0,1,19.77-39.82q4.3-7.16,9.88-6.59a15.5,15.5,0,0,1,9.88,5.15,24.26,24.26,0,0,1,5.87,11,13.28,13.28,0,0,1-1.86,11.32,148.15,148.15,0,0,0-9,14.61q-4.73,8.6-8.88,18t-7.45,18.77a127.78,127.78,0,0,0-4.87,17,48.32,48.32,0,0,0-1.15,13.18q.43,5.44,3.58,6.59,4.3,1.72,9.88-2.86a64.06,64.06,0,0,0,11.46-13,159.25,159.25,0,0,0,11.46-19.62q5.59-11.17,10.17-22.63,3.15-12,7.59-24.35T939,696q2.58-6.59,7.59-7.3a12.61,12.61,0,0,1,9.6,2.72,19.75,19.75,0,0,1,6.73,10q2.15,6.59-.72,14.32-2.3,5.74-5.59,14.18t-6.73,17.76q-3.44,9.31-6.44,18.62t-4.73,17.19a51.55,51.55,0,0,0-1.43,13.32q.28,5.44,3.44,6.59,4.58,1.72,10.89-2.29a61.45,61.45,0,0,0,12.75-11.32,130.07,130.07,0,0,0,12.17-16.33,121.39,121.39,0,0,0,9.17-17"/><path class="cls-2" d="M1052.15,756.48q5.16-11.74,7.73-11.6t-2,11.6l-4.16,9.17q-2.72,6-6.73,13.32a154.14,154.14,0,0,1-9.17,14.61,93.43,93.43,0,0,1-11,13,46.87,46.87,0,0,1-12.46,8.88,20.65,20.65,0,0,1-13.47,1.72q-8.59-1.43-13.17-7.59a34.11,34.11,0,0,1-6-15.33,70.37,70.37,0,0,1,.29-20.91,152.86,152.86,0,0,1,5.87-24.63,224.24,224.24,0,0,1,10.46-26.36A251.71,251.71,0,0,1,1012.62,696q4.3-7.16,10-6.73a15.47,15.47,0,0,1,10,4.73,23.38,23.38,0,0,1,6,10.6A12.67,12.67,0,0,1,1037,715.8a166,166,0,0,0-9.17,14.61q-4.88,8.59-9.17,17.9t-7.88,18.62a137.37,137.37,0,0,0-5.44,17,46.43,46.43,0,0,0-1.58,13q.28,5.3,3.44,6.44,4.87,1.72,11.17-2.29a58.64,58.64,0,0,0,12.6-11.32,128.67,128.67,0,0,0,11.89-16.33,163.83,163.83,0,0,0,9.31-17m17.19-103.13a18,18,0,0,1-5.59,13.46,19,19,0,0,1-26.64,0,18,18,0,0,1-5.59-13.46,17.72,17.72,0,0,1,5.59-13.18,19,19,0,0,1,26.64,0,17.71,17.71,0,0,1,5.59,13.18"/><path class="cls-2" d="M1095.69,697.75q-2.3,9.74-5.73,22.2t-7.45,25.64a252.52,252.52,0,0,1,22.34-32.37q9.45-11.45,19.34-17.47t18.19-6.88q8.3-.86,13.89,3t6.45,12.17q.86,6.88-2,16.76a200.05,200.05,0,0,1-7.31,20.62q-4.44,10.74-9.31,21.49t-8.31,19.48a62.45,62.45,0,0,0-4.15,14.61q-.71,5.87,3,7,4,1.15,9.45-2.29a57.88,57.88,0,0,0,11.46-10A116.61,116.61,0,0,0,1167.45,776a146.46,146.46,0,0,0,10.46-19.48,37,37,0,0,1,4.3-8q2-2.58,3.15-2.58c.76,0,1,.86.86,2.58a33.31,33.31,0,0,1-2.58,8q-2.3,5.74-7.45,16A150.51,150.51,0,0,1,1163.73,793a91.85,91.85,0,0,1-16.62,17.76q-9.31,7.6-19.62,7.59-7.45,0-11.89-4.58t-6-12.75a59.37,59.37,0,0,1,0-19.34,151.19,151.19,0,0,1,5.87-24.64q1.72-4.87,3.87-10.6t4.15-11q2-5.3,3.72-9.6t2.29-6.3q-5.45,0-14,6.88a123.5,123.5,0,0,0-18,18.48,210.41,210.41,0,0,0-18.19,26.5A205.4,205.4,0,0,0,1064.46,802l-1.43,4q-3.15,8.88-7.88,10.89a6.8,6.8,0,0,1-8.31-1.86q-3.58-3.87-5-13.32t2.58-24.06q1.44-5.15,4.73-13.89t7.73-19.62q4.44-10.88,9.31-23.35t9.17-25.64a19.77,19.77,0,0,1,6-9q4-3.29,7.73-3.3a7,7,0,0,1,6,3.44q2.29,3.44.57,11.46"/><path class="cls-2" d="M1123.76,648.19q18.63,2,40,3.58t42.83,2.72q9.45-18.62,19.48-30.08t18.77-16.33q8.74-4.87,15.32-3.72a11.51,11.51,0,0,1,9.17,7.59q2.58,6.45.29,17.62t-11.17,26.07l-.86,1.43q17.76.58,30.37.86t16.9.28a26,26,0,0,1,8.6,1.15q3.14,1.15,3.29,2.58t-2.72,2.58q-2.87,1.15-9.17,1.43L1251,667.67q-6.3,10-12.6,19.34t-11.89,17.33q-5.59,8-10.17,14.18t-7.45,9.88q-4.3,15.19-6.73,28.65a134.88,134.88,0,0,0-2.43,23.64q0,10.17,2.58,16.33t8.31,7q6.3.86,13.46-4.3A77,77,0,0,0,1237.64,787a138.15,138.15,0,0,0,11.74-16,109.29,109.29,0,0,0,7.88-14.47,13.51,13.51,0,0,1,2.86-4.58,5.9,5.9,0,0,1,2.72-1.86c.67-.09,1.09.38,1.29,1.43s-.19,2.72-1.15,5q-2.58,6.31-7.88,16.76a149.52,149.52,0,0,1-12.6,20.48A89,89,0,0,1,1226,811.05q-9.17,7.3-19.77,7.3-13.47,0-20.48-11.75t-8.16-31.23q-1.14-19.48,3.58-44.69a309.11,309.11,0,0,1,15-52.42l3.44-8.59-55.58,2q-11.74.58-19.77-3.58T1113,659.22q-3.29-4.73-.86-8.45t11.6-2.58M1230,668.53q-4.87,12-8.31,21.63t-5.44,15.32q5.73-8.3,12-17.76t12.32-19.48h-5.16c-1.72,0-3.53.1-5.44.28m20.05-16.61q7.15-12.32,8.17-18.33t-2-5.59q-3,.43-8.74,7.45t-12,20.48q3.15.29,6,.43t6,.14Z"/><path class="cls-2" d="M1277,817.78q-10.32-.28-15.76-9.45t-6.44-22.92a107,107,0,0,1,2.43-29.93,108.53,108.53,0,0,1,11.32-30.37,87.83,87.83,0,0,1,19.77-24.35,50.17,50.17,0,0,1,27.93-11.89,39.75,39.75,0,0,1,21.06,2.72q9.6,4.16,12.75,11a21.27,21.27,0,0,1,2,8.31,18.81,18.81,0,0,1-1.72,9.17,15,15,0,0,1-6.88,6.88q-4.87,2.58-13.46,1.43.57-6.88-3.44-11.17t-12-3.72q-8.31.85-15.61,8A67.26,67.26,0,0,0,1286.33,739a124.73,124.73,0,0,0-8.74,22.06,112.44,112.44,0,0,0-4.3,21.63q-.86,9.88.86,16.47t6.88,6.59q6,0,12.32-7.74a102.8,102.8,0,0,0,11.75-18.48,228.43,228.43,0,0,0,9.74-22.06q4.3-11.31,6.88-18.19a8.88,8.88,0,0,1,6.88-6,19,19,0,0,1,10.31.57,18.11,18.11,0,0,1,8.45,5.73q3.29,4,1.29,9.45-2.87,7.73-7,17.48t-6.87,18.33a46,46,0,0,0-2.58,14.61q.14,6,6.16,6,5.73,0,12-6.44a100.89,100.89,0,0,0,11.89-14.9,158.63,158.63,0,0,0,9.6-16.47q4-8,5.44-11.17a13.39,13.39,0,0,1,2.86-4.58c1.15-1.15,2-1.72,2.72-1.72s1.1.53,1.29,1.58-.19,2.63-1.15,4.72q-1.15,2.3-3.3,7.74t-5.3,12.32a158.66,158.66,0,0,1-7.45,14.18,92.59,92.59,0,0,1-9.45,13.32,51.4,51.4,0,0,1-11.17,9.88,23.43,23.43,0,0,1-12.89,3.87q-7.16,0-11.32-3.44a20.65,20.65,0,0,1-6.16-8.59,33,33,0,0,1-2.15-11.32,68.94,68.94,0,0,1,.72-11.89,105.64,105.64,0,0,1-6.59,14,52.12,52.12,0,0,1-8.45,11.31,38.24,38.24,0,0,1-10.31,7.45,24.82,24.82,0,0,1-12.17,2.43"/><path class="cls-2" d="M1420.83,697.75q-2.3,9.74-5.73,22.2t-7.45,25.64A252.65,252.65,0,0,1,1430,713.22q9.45-11.45,19.34-17.47t18.19-6.88q8.3-.86,13.89,3t6.45,12.17q.86,6.88-2,16.76a200.47,200.47,0,0,1-7.31,20.62q-4.44,10.74-9.31,21.49t-8.31,19.48a62.31,62.31,0,0,0-4.15,14.61q-.71,5.87,3,7,4,1.15,9.45-2.29a57.83,57.83,0,0,0,11.46-10A116.39,116.39,0,0,0,1492.59,776,146.3,146.3,0,0,0,1503,756.48a37,37,0,0,1,4.3-8q2-2.58,3.15-2.58c.76,0,1,.86.86,2.58a33.23,33.23,0,0,1-2.58,8q-2.3,5.74-7.45,16A150.25,150.25,0,0,1,1488.87,793a92,92,0,0,1-16.62,17.76q-9.31,7.6-19.62,7.59-7.46,0-11.89-4.58t-6-12.75a59.37,59.37,0,0,1,0-19.34,151.19,151.19,0,0,1,5.87-24.64q1.72-4.87,3.87-10.6t4.15-11q2-5.3,3.72-9.6c1.15-2.86,1.91-5,2.29-6.3q-5.44,0-14,6.88a123.5,123.5,0,0,0-18,18.48,210.56,210.56,0,0,0-18.19,26.5A205.26,205.26,0,0,0,1389.6,802l-1.43,4q-3.15,8.88-7.88,10.89a6.8,6.8,0,0,1-8.31-1.86q-3.58-3.87-5-13.32t2.58-24.06q1.44-5.15,4.73-13.89t7.73-19.62q4.44-10.88,9.31-23.35t9.17-25.64a19.79,19.79,0,0,1,6-9q4-3.29,7.73-3.3a7,7,0,0,1,6,3.44q2.29,3.44.57,11.46"/><path class="cls-2" d="M1569.5,756.48q5.16-11.74,7.74-11.6t-2,11.6l-4.16,9.17q-2.73,6-6.73,13.32a153.84,153.84,0,0,1-9.17,14.61,93.43,93.43,0,0,1-11,13,46.84,46.84,0,0,1-12.46,8.88,20.65,20.65,0,0,1-13.47,1.72q-8.59-1.43-13.18-7.59a34.09,34.09,0,0,1-6-15.33,70.37,70.37,0,0,1,.29-20.91,153,153,0,0,1,5.87-24.63,224.47,224.47,0,0,1,10.46-26.36A251.23,251.23,0,0,1,1530,696q4.29-7.16,10-6.73a15.46,15.46,0,0,1,10,4.73,23.37,23.37,0,0,1,6,10.6,12.68,12.68,0,0,1-1.72,11.17,165.94,165.94,0,0,0-9.17,14.61q-4.88,8.59-9.17,17.9t-7.88,18.62a137.42,137.42,0,0,0-5.44,17,46.37,46.37,0,0,0-1.57,13q.28,5.3,3.44,6.44,4.87,1.72,11.17-2.29a58.63,58.63,0,0,0,12.6-11.32,128.65,128.65,0,0,0,11.89-16.33,163.52,163.52,0,0,0,9.31-17m17.19-103.13a18,18,0,0,1-5.59,13.46,19,19,0,0,1-26.64,0,18,18,0,0,1-5.59-13.46,17.71,17.71,0,0,1,5.59-13.18,19,19,0,0,1,26.64,0,17.72,17.72,0,0,1,5.59,13.18"/><path class="cls-2" d="M303,745.28q-2.58-.14-7.45,10.74A189.59,189.59,0,0,1,285,775.5a116.55,116.55,0,0,1-11.6,15.75,53,53,0,0,1-11.46,10q-5.59,3.44-9.6,2.29-3.73-1.14-3-7a62.18,62.18,0,0,1,4.15-14.61q3.44-8.74,8.31-19.48T271.1,741a200.38,200.38,0,0,0,7.31-20.62q2.86-9.88,2-16.76-.86-8.3-6.45-12.17t-13.89-3q-8.31.86-18.19,6.88t-19.34,17.47q-4.87,5.74-9.45,12.17t-8.88,13.61q1.43-4.87,3.15-9.74t3.15-9.45Q220.25,705,229,691.42t17-26.21a171.08,171.08,0,0,0,15.9-29.79q5.3-13.46,4.44-21.77a15,15,0,0,0-4.15-8.88,11.92,11.92,0,0,0-8.16-3.29q-4.87-.14-11.17,3A46.3,46.3,0,0,0,230,614.79q-9.17,10-18.34,28.07T192.46,689q-6.59,18.62-12.32,35.95T170.41,756h0l-3.61,12.63c0,.14-.07.28-.11.42l0,.05-2.3,8.07h0q-4,14.61-3,24.06t4.3,13.32q3.29,3.87,7.73,1.86T181,805.58a169,169,0,0,1,14.47-31.8A250.39,250.39,0,0,1,214.09,746a120.28,120.28,0,0,1,18.62-19.62q9-7.3,14.47-7.3-.58,2-2.15,6.3t-3.73,9.6q-2.15,5.3-4.3,11t-3.87,10.6a151.37,151.37,0,0,0-5.87,24.64,59.36,59.36,0,0,0,0,19.33q1.57,8.17,6,12.75t11.89,4.58q10.59,0,19.77-7.59a92.32,92.32,0,0,0,16.47-17.9,158,158,0,0,0,12.46-20.63Q299,761.47,301.32,756,305.62,745.43,303,745.28Zm-80.78-61.59q1.43-3.87,2.86-8.16,5.44-15.47,10.74-27.07a211.34,211.34,0,0,1,9.6-18.91q4.3-7.3,7.45-9.88t4.58,0q1.14,2-.43,6.59a88.61,88.61,0,0,1-4.87,11q-3.3,6.45-8,14.47T234,668.36l-14.32,22.92Q220.82,687.56,222.26,683.69Z"/><path class="cls-2" d="M1648.57,661.08q-6.88,10.89-13.75,21.06t-13,19.05q-6.16,8.88-11.32,15.9t-8,11a263.43,263.43,0,0,0-7,29.36,169.67,169.67,0,0,0-2.72,24.21q-.29,10.31,1.72,16.33t6.59,6q4.86,0,10.88-5.16a83.67,83.67,0,0,0,11.75-12.6,143.59,143.59,0,0,0,10.45-15.61,136.5,136.5,0,0,0,7.31-14.18,14.84,14.84,0,0,1,2.72-4.58,5.1,5.1,0,0,1,2.72-1.86c.76-.09,1.24.38,1.43,1.43s-.19,2.72-1.14,5q-2.58,6-7.3,16.33a152.11,152.11,0,0,1-11.46,20.48,96.8,96.8,0,0,1-14.75,17.61q-8,7.46-16.9,7.45-14.33,0-21.06-11.74t-7-31.23q-.28-19.48,5.16-44.69a367.07,367.07,0,0,1,15.76-52.42q9.17-24.07,20.48-40.25t22.06-24.78q10.74-8.59,19.19-9.6t12,5.16q3.58,6.16.57,19.34t-15.33,32.94m-39.25,45q6.59-9.16,13.46-20.05t13.46-21.77q12.6-20.91,16-32.37t.43-11.74q-3-.29-11,11.31T1623.93,668l-13.18,34.38Z"/><path class="cls-2" d="M1720.47,661.08q-6.88,10.89-13.75,21.06t-13,19.05q-6.16,8.88-11.31,15.9t-8,11a262.85,262.85,0,0,0-7,29.36,169.53,169.53,0,0,0-2.72,24.21q-.29,10.31,1.72,16.33t6.59,6q4.87,0,10.89-5.16a83.67,83.67,0,0,0,11.75-12.6A143.59,143.59,0,0,0,1706,770.66a136.5,136.5,0,0,0,7.31-14.18,14.84,14.84,0,0,1,2.72-4.58,5.1,5.1,0,0,1,2.72-1.86c.76-.09,1.24.38,1.43,1.43s-.19,2.72-1.14,5q-2.58,6-7.3,16.33a152.27,152.27,0,0,1-11.46,20.48,96.8,96.8,0,0,1-14.75,17.61q-8,7.46-16.9,7.45-14.33,0-21.06-11.74t-7-31.23q-.28-19.48,5.16-44.69a367.07,367.07,0,0,1,15.75-52.42q9.17-24.07,20.48-40.25T1704,613.25q10.74-8.59,19.19-9.6t12,5.16q3.58,6.16.57,19.34t-15.33,32.94m-39.25,45q6.59-9.16,13.46-20.05t13.46-21.77q12.6-20.91,16-32.37t.43-11.74q-3-.29-11,11.31T1695.84,668l-13.18,34.38Z"/><path class="cls-2" d="M1733.07,817.78q-10.32-.28-15.75-9.45t-6.45-22.92a107,107,0,0,1,2.43-29.93,108.53,108.53,0,0,1,11.32-30.37,87.8,87.8,0,0,1,19.77-24.35,50.16,50.16,0,0,1,27.93-11.89,39.75,39.75,0,0,1,21.06,2.72q9.59,4.16,12.75,11a21.27,21.27,0,0,1,2,8.31,18.81,18.81,0,0,1-1.72,9.17,15,15,0,0,1-6.88,6.88q-4.87,2.58-13.46,1.43.57-6.88-3.44-11.17t-12-3.72q-8.31.85-15.61,8A67.3,67.3,0,0,0,1742.38,739a124.73,124.73,0,0,0-8.74,22.06,112.33,112.33,0,0,0-4.3,21.63q-.86,9.88.86,16.47t6.88,6.59q6,0,12.32-7.74a102.72,102.72,0,0,0,11.75-18.48,228.09,228.09,0,0,0,9.74-22.06q4.3-11.31,6.88-18.19a8.88,8.88,0,0,1,6.88-6,19,19,0,0,1,10.31.57,18.12,18.12,0,0,1,8.45,5.73q3.29,4,1.29,9.45-2.87,7.73-7,17.48t-6.87,18.33a46,46,0,0,0-2.58,14.61q.14,6,6.16,6,5.73,0,12-6.44a100.8,100.8,0,0,0,11.89-14.9,158.88,158.88,0,0,0,9.6-16.47q4-8,5.44-11.17a13.39,13.39,0,0,1,2.86-4.58c1.15-1.15,2-1.72,2.72-1.72s1.1.53,1.29,1.58-.19,2.63-1.15,4.72q-1.15,2.3-3.3,7.74t-5.3,12.32a158.66,158.66,0,0,1-7.45,14.18,92.48,92.48,0,0,1-9.45,13.32,51.4,51.4,0,0,1-11.17,9.88,23.43,23.43,0,0,1-12.89,3.87q-7.16,0-11.32-3.44a20.66,20.66,0,0,1-6.16-8.59,33.11,33.11,0,0,1-2.15-11.32,68.94,68.94,0,0,1,.72-11.89,105.29,105.29,0,0,1-6.59,14,52.16,52.16,0,0,1-8.45,11.31,38.29,38.29,0,0,1-10.31,7.45,24.83,24.83,0,0,1-12.17,2.43"/><path class="cls-2" d="M169.74,758.65A80.65,80.65,0,0,1,156.34,778,79.25,79.25,0,0,1,136,793.86a69.54,69.54,0,0,1-24.35,7.88,52.8,52.8,0,0,1-25.93-3.15,32.3,32.3,0,0,1-18-15.18,63.46,63.46,0,0,1-7.3-25.35,115.31,115.31,0,0,1,1.86-31.37,180.46,180.46,0,0,1,9.6-33.23,182.68,182.68,0,0,1,15.61-30.79,109.71,109.71,0,0,1,20.34-24.21,62.1,62.1,0,0,1,23.63-13.32,37.28,37.28,0,0,1,25.07,1.57q8.59,3.44,11.75,10.17a25.59,25.59,0,0,1,2,14.75,46.55,46.55,0,0,1-5.73,16.19A50.92,50.92,0,0,1,152.76,682a47.27,47.27,0,0,1-16,8.88,33.16,33.16,0,0,1-18.34.57,22.17,22.17,0,0,0-3.29,8.88,14.63,14.63,0,0,0,7.59,15.61q4.58,2.73,12.32,2.72a52,52,0,0,0,26.5-6.88,62.2,62.2,0,0,0,19.62-17.62,65.68,65.68,0,0,0,10.74-23.35,47.73,47.73,0,0,0-.14-24.06,41,41,0,0,0-12.89-20.05q-9.74-8.59-27.5-11.17-22.92-3.15-41.83,2.72a99.34,99.34,0,0,0-33.66,17.9A113.67,113.67,0,0,0,50.78,665,146,146,0,0,0,35,700a141.09,141.09,0,0,0-5.87,37.1,106.46,106.46,0,0,0,4.58,34.66,75.14,75.14,0,0,0,15.61,27.79q10.6,11.89,27.5,16.47a65.67,65.67,0,0,0,26.93,2.29,75.8,75.8,0,0,0,24.06-7.3,86,86,0,0,0,20.48-14.32,114.63,114.63,0,0,0,15.73-18.14Z"/><path class="cls-2" d="M362.05,756.48q5.16-11.74,7.74-11.6t-2,11.6l-4.15,9.17q-2.73,6-6.73,13.32a153.69,153.69,0,0,1-9.17,14.61,93.48,93.48,0,0,1-11,13,46.85,46.85,0,0,1-12.46,8.88,20.65,20.65,0,0,1-13.46,1.72q-8.59-1.43-13.18-7.59a34.07,34.07,0,0,1-6-15.33,70.32,70.32,0,0,1,.28-20.91,153.22,153.22,0,0,1,5.87-24.63,224.16,224.16,0,0,1,10.46-26.36A252.1,252.1,0,0,1,322.52,696q4.3-7.16,10-6.73a15.47,15.47,0,0,1,10,4.73,23.38,23.38,0,0,1,6,10.6,12.68,12.68,0,0,1-1.72,11.17,166.62,166.62,0,0,0-9.17,14.61q-4.87,8.59-9.17,17.9t-7.88,18.62a137.39,137.39,0,0,0-5.44,17,46.41,46.41,0,0,0-1.58,13q.28,5.3,3.44,6.44,4.87,1.72,11.17-2.29a58.65,58.65,0,0,0,12.61-11.32,128.79,128.79,0,0,0,11.89-16.33,163.47,163.47,0,0,0,9.31-17m17.19-103.13a18,18,0,0,1-5.59,13.46,19,19,0,0,1-26.64,0,18,18,0,0,1-5.59-13.46A17.72,17.72,0,0,1,347,640.17a19,19,0,0,1,26.64,0,17.72,17.72,0,0,1,5.59,13.18"/><path class="cls-2" d="M405.59,697.75q-2.3,9.74-5.73,22.2t-7.45,25.64a252.91,252.91,0,0,1,22.34-32.37q9.46-11.45,19.34-17.47t18.19-6.88q8.31-.86,13.9,3t6.44,12.17q.86,6.88-2,16.76a200.82,200.82,0,0,1-7.3,20.62q-4.45,10.74-9.31,21.49t-8.31,19.48A62.29,62.29,0,0,0,441.54,797q-.72,5.87,3,7,4,1.15,9.45-2.29a58,58,0,0,0,11.46-10A116.66,116.66,0,0,0,477.35,776a146.38,146.38,0,0,0,10.46-19.48,36.91,36.91,0,0,1,4.3-8q2-2.58,3.15-2.58t.86,2.58a33.15,33.15,0,0,1-2.58,8q-2.29,5.74-7.45,16A150.37,150.37,0,0,1,473.63,793,92,92,0,0,1,457,810.77q-9.31,7.6-19.62,7.59-7.45,0-11.89-4.58t-6-12.75a59.25,59.25,0,0,1,0-19.34,151,151,0,0,1,5.87-24.64q1.72-4.87,3.87-10.6t4.15-11q2-5.3,3.72-9.6t2.29-6.3q-5.45,0-14,6.88a123.7,123.7,0,0,0-18,18.48,210.61,210.61,0,0,0-18.19,26.5A205,205,0,0,0,374.37,802l-1.43,4q-3.16,8.88-7.88,10.89a6.81,6.81,0,0,1-8.31-1.86q-3.58-3.87-5-13.32t2.58-24.06q1.44-5.15,4.73-13.89t7.74-19.62q4.44-10.88,9.31-23.35t9.17-25.64a19.78,19.78,0,0,1,6-9q4-3.29,7.74-3.3a7,7,0,0,1,6,3.44q2.29,3.44.57,11.46"/><path class="cls-2" d="M546.54,687.44A20.51,20.51,0,0,1,557,691.31a39.72,39.72,0,0,1,7.59,7.31,29.24,29.24,0,0,1,8,2.29,19.89,19.89,0,0,1,10.17,11.17,44.72,44.72,0,0,1,2.72,17.62,81.33,81.33,0,0,1-3.72,21.2,141.86,141.86,0,0,1-8.88,22.2q6.59.58,15.18-3t13.18-13.61a21.17,21.17,0,0,1,3.58-6c1.24-1.33,2.19-2,2.87-2s1,.67,1,2a17.24,17.24,0,0,1-1.72,6q-2.3,4.59-5.44,10.6A42.86,42.86,0,0,1,593.37,778a35.39,35.39,0,0,1-12,7.59q-7,2.73-16.47,1a108.51,108.51,0,0,1-12.6,15.18,67.75,67.75,0,0,1-14.47,11.17,42.18,42.18,0,0,1-15.61,5.3,32.35,32.35,0,0,1-16-2.15A28.15,28.15,0,0,1,490,799.88q-4.73-11.6-4.16-26.35a113.72,113.72,0,0,1,5.73-30.65A119.74,119.74,0,0,1,505,714.23a75.83,75.83,0,0,1,19-20.48q10.74-7.73,22.49-6.3m8.88,96a32.61,32.61,0,0,1-14.47-13.32,50.26,50.26,0,0,1-6.3-18.91,65.21,65.21,0,0,1,.72-20.62,52.18,52.18,0,0,1,6.87-18.19,60.56,60.56,0,0,0-14.32,13.75,94.59,94.59,0,0,0-11.17,18.77,104.71,104.71,0,0,0-6.88,20.63,82.8,82.8,0,0,0-2.15,19.05A32.71,32.71,0,0,0,510.87,799a11.92,11.92,0,0,0,9.6,6.73q9.45,1.44,18.48-5.16a72.78,72.78,0,0,0,16.47-17.19m15.18-70.76q-4.87-2.58-8.74-.29a16.48,16.48,0,0,0-6.3,7.45A42.5,42.5,0,0,0,552.12,732a54,54,0,0,0-.14,14.18,48.16,48.16,0,0,0,3.58,13.46,23.56,23.56,0,0,0,7.88,10,132.14,132.14,0,0,0,7.73-18.19,97.48,97.48,0,0,0,4.3-17.33,41.47,41.47,0,0,0,0-13.75q-1.15-5.73-4.87-7.74"/><path class="cls-2" d="M1833.33,756.48a95.14,95.14,0,0,1,13.18-21.34,24.22,24.22,0,0,1,17.76-9,24.69,24.69,0,0,1,15.76,4.73A37.77,37.77,0,0,1,1891.2,744a53,53,0,0,1,3.72,38.53,152.22,152.22,0,0,1-6.16,17.19q-3.87,9.17-13.61,18.48t-27.36,18.33q-17.62,9-47.27,16.76t-73.34,13.9q-43.68,6.16-105.28,9.6t-110.43,8.31q-48.84,4.87-87.37,11.31t-68.18,14.18a451.07,451.07,0,0,0-53,17,311.94,311.94,0,0,0-42,20.19A357.41,357.41,0,0,0,1226,971q1.15-18.91-4.15-34.09a77.72,77.72,0,0,0-15-26.21,75.72,75.72,0,0,0-23.2-17.76,98.31,98.31,0,0,0-28.51-9.17,107,107,0,0,0-30.79-.43,102.33,102.33,0,0,0-30.08,8.59q2-3.73,10.17-11.89t26.5-17.19q18.34-9,49-17.33t77.63-12q26.36-2,62.45-2.29t77.92.43q41.83.71,87.23,2t90.24,2.29q44.84,1,86.94,1.57t77.49-.43q35.38-1,61.73-3.87t39.82-8.31q15.76-6.59,25.79-15.9a69.36,69.36,0,0,0,15.18-19.62,54.38,54.38,0,0,0,5.87-20.62,47.75,47.75,0,0,0-2-18.48,28.41,28.41,0,0,0-8.74-13.18,21.27,21.27,0,0,0-14-5q-5.73,0-12.46,5.73t-11.89,18.62a18.07,18.07,0,0,1-3,5.16,4.28,4.28,0,0,1-2.87,1.72c-.86,0-1.33-.58-1.43-1.72s.43-2.86,1.57-5.16"/><path class="cls-8" d="M1156.16,494.92H769.81A65,65,0,0,1,704.88,430V203.52a65,65,0,0,1,64.92-64.92h386.36a65,65,0,0,1,64.92,64.92V430A65,65,0,0,1,1156.16,494.92ZM769.81,146.82a56.77,56.77,0,0,0-56.7,56.7V430a56.77,56.77,0,0,0,56.7,56.7h386.36a56.77,56.77,0,0,0,56.7-56.7V203.52a56.77,56.77,0,0,0-56.7-56.7Z"/><path class="cls-9" d="M1156.16,142.71H769.81A60.88,60.88,0,0,0,709,203.52V430a60.88,60.88,0,0,0,60.81,60.81h386.36A60.88,60.88,0,0,0,1217,430V203.52a60.88,60.88,0,0,0-60.81-60.81"/><path class="cls-10" d="M1219.47,274,893.82,66.11a60.88,60.88,0,0,0-84,18.53L688,275.52a60.88,60.88,0,0,0,18.53,84l325.65,207.91a60.88,60.88,0,0,0,84-18.53L1238,358a60.88,60.88,0,0,0-18.53-84"/><path class="cls-11" d="M1026.35,64.58,705.58,279.94A60.88,60.88,0,0,0,689,364.33l126.24,188a60.88,60.88,0,0,0,84.39,16.59l320.76-215.36A60.88,60.88,0,0,0,1237,269.19l-126.24-188a60.88,60.88,0,0,0-84.39-16.59"/><path class="cls-12" d="M1074,316.76a111,111,0,1,1-111-111,111,111,0,0,1,111,111"/><path class="cls-13" d="M963,279.9a36.86,36.86,0,1,0,36.85,36.85A36.86,36.86,0,0,0,963,279.9"/><path class="cls-14" d="M910.68,323.45a6.69,6.69,0,0,1-6.69-6.69,59.06,59.06,0,0,1,59-59,6.69,6.69,0,0,1,0,13.38,45.67,45.67,0,0,0-45.62,45.62,6.69,6.69,0,0,1-6.69,6.69"/><path class="cls-15" d="M963,427.78a111,111,0,1,1,111-111,111.15,111.15,0,0,1-111,111m0-205.65a94.63,94.63,0,1,0,94.63,94.63A94.74,94.74,0,0,0,963,222.13"/><path class="cls-13" d="M963,392.93a76.17,76.17,0,1,1,76.18-76.17A76.26,76.26,0,0,1,963,392.93m0-143.69a67.52,67.52,0,1,0,67.52,67.52A67.6,67.6,0,0,0,963,249.24"/><path class="cls-6" d="M963.39,328.18a4.74,4.74,0,1,1-4.74-4.74,4.74,4.74,0,0,1,4.74,4.74"/><g class="cls-16"><g class="cls-17"><path class="cls-6" d="M963,279.9a36.86,36.86,0,1,0,36.85,36.85A36.86,36.86,0,0,0,963,279.9"/></g></g></svg>