<svg xmlns="http://www.w3.org/2000/svg" xmlns:xlink="http://www.w3.org/1999/xlink" viewBox="0 0 3840 2160"><defs><style>.cls-1{fill:none;}.cls-10,.cls-2{fill:#fff;}.cls-3{fill:#406ea0;stroke:#f2f2f2;stroke-miterlimit:10;stroke-width:5px;}.cls-4{fill:#e7ad4b;}.cls-5{fill:#ca262a;}.cls-6{fill:#6e6f71;}.cls-7{fill:#262324;}.cls-8{fill:#434345;}.cls-9{fill:#040706;}.cls-10{font-size:31.9px;font-family:MyriadPro-Regular, Myriad Pro;}.cls-11{opacity:0.1;}.cls-12{clip-path:url(#clip-path);}</style><clipPath id="clip-path"><rect class="cls-1" x="1863.32" y="547.88" width="142.68" height="143.38"/></clipPath></defs><title>Artboard 1</title><g id="TItulo_o" data-name="TItulo/o"><path class="cls-2" d="M2270.94,1785.3a68.92,68.92,0,0,1,26.78,5,57.41,57.41,0,0,1,20.35,14.12,62.09,62.09,0,0,1,12.92,22.13,96.09,96.09,0,0,1,0,58,62.1,62.1,0,0,1-12.92,22.07,56.58,56.58,0,0,1-20.35,14.05,69.64,69.64,0,0,1-26.78,4.91,70.5,70.5,0,0,1-27-4.91,56.44,56.44,0,0,1-20.42-14.05,62.14,62.14,0,0,1-12.92-22.07,96.14,96.14,0,0,1,0-58,62.13,62.13,0,0,1,12.92-22.13,57.26,57.26,0,0,1,20.42-14.12,69.77,69.77,0,0,1,27-5m0,121.61q20.08,0,30-13.52t9.91-37.74q0-24.35-9.91-37.93t-30-13.59a41.86,41.86,0,0,0-17.74,3.5,33,33,0,0,0-12.58,10.09,44.89,44.89,0,0,0-7.5,16.21,87.23,87.23,0,0,0-2.48,21.72q0,24.22,10,37.74t30.32,13.52"/></g><g id="TItulo_i" data-name="TItulo/i"><path class="cls-2" d="M2112.84,1744.67a15.28,15.28,0,0,1-1.4,6.52,18.91,18.91,0,0,1-3.75,5.38,17.3,17.3,0,0,1-5.49,3.7,16.7,16.7,0,0,1-6.62,1.34,15.76,15.76,0,0,1-6.49-1.34,16.92,16.92,0,0,1-5.29-3.7,18.39,18.39,0,0,1-3.62-5.38,15.92,15.92,0,0,1-1.34-6.52,16.88,16.88,0,0,1,1.34-6.66,17.85,17.85,0,0,1,3.62-5.52,16.88,16.88,0,0,1,5.29-3.7,15.76,15.76,0,0,1,6.49-1.34,16.7,16.7,0,0,1,6.62,1.34,17.26,17.26,0,0,1,5.49,3.7,18.3,18.3,0,0,1,3.75,5.52,16.19,16.19,0,0,1,1.4,6.66m-5.09,179.06h-23.82V1787.45h23.82Z"/></g><g id="TItulo_d" data-name="TItulo/d"><path class="cls-2" d="M1977.9,1725.57v198.16h-14.19q-5.09,0-6.43-5l-2.14-16.55a73.92,73.92,0,0,1-19.81,16.95q-11.11,6.46-25.7,6.46a48.71,48.71,0,0,1-21.15-4.51,43.83,43.83,0,0,1-16.2-13.25q-6.7-8.75-10.31-21.79a112.68,112.68,0,0,1-3.62-30,94.47,94.47,0,0,1,4-28.05,69.25,69.25,0,0,1,11.51-22.54,53.47,53.47,0,0,1,18.41-15,54.22,54.22,0,0,1,24.56-5.45q12.45,0,21.36,4.24a51.78,51.78,0,0,1,15.86,11.77v-75.47Zm-23.83,94.3q-6.7-9-14.46-12.58a41.25,41.25,0,0,0-17.41-3.57q-18.87,0-29.05,13.58T1883,1856.07a98.86,98.86,0,0,0,2.28,22.8,44,44,0,0,0,6.69,15.6,26.28,26.28,0,0,0,10.84,8.95,35.89,35.89,0,0,0,14.59,2.83,38.5,38.5,0,0,0,20.55-5.38,59,59,0,0,0,16.13-15.2Z"/></g><g id="TItulo_u" data-name="TItulo/u"><path class="cls-2" d="M1761,1787.45v136.28h-14.19q-5.09,0-6.43-5l-1.87-14.67a74.7,74.7,0,0,1-19.81,15.81,51.78,51.78,0,0,1-25.17,6,48.76,48.76,0,0,1-19.61-3.7,38.79,38.79,0,0,1-14.26-10.43,44.3,44.3,0,0,1-8.64-16.28,73.06,73.06,0,0,1-2.87-21.12v-86.91H1672v86.91q0,15.47,7,23.95t21.49,8.48a40.28,40.28,0,0,0,19.75-5,62.73,62.73,0,0,0,16.94-13.92V1787.45Z"/></g><g id="TItulo_t" data-name="TItulo/t"><path class="cls-2" d="M1528.23,1925.88q-16.07,0-24.7-9t-8.63-26V1807.5h-16.33a5.29,5.29,0,0,1-3.61-1.28,5,5,0,0,1-1.48-4v-9.55l22.22-2.83,5.49-42.11a5.87,5.87,0,0,1,1.81-3.3,5.28,5.28,0,0,1,3.68-1.28h12.05v47h39.22v17.35h-39.22v81.8q0,8.61,4.15,12.78a14.46,14.46,0,0,0,10.71,4.17,18.93,18.93,0,0,0,6.49-1,28,28,0,0,0,4.75-2.22q2-1.21,3.41-2.22a4.48,4.48,0,0,1,2.48-1q1.87,0,3.34,2.29l7,11.44a44.36,44.36,0,0,1-14.86,9.08,50.25,50.25,0,0,1-17.94,3.3"/></g><g id="TItulo_s" data-name="TItulo/s"><path class="cls-2" d="M1382.71,1809.92a5.28,5.28,0,0,1-5,3,9.23,9.23,0,0,1-4.55-1.48q-2.55-1.47-6.23-3.29a57.69,57.69,0,0,0-8.77-3.37,41.67,41.67,0,0,0-12-1.55,35.41,35.41,0,0,0-10.84,1.55,26,26,0,0,0-8.23,4.24,18.78,18.78,0,0,0-5.22,6.26,16.88,16.88,0,0,0-1.81,7.73,12.92,12.92,0,0,0,3,8.74,26.09,26.09,0,0,0,8,6.05,68.84,68.84,0,0,0,11.24,4.51q6.29,2,12.92,4.17t12.92,4.91a46.82,46.82,0,0,1,11.25,6.73,30.75,30.75,0,0,1,8,9.89,30.41,30.41,0,0,1,3,14.06,44.73,44.73,0,0,1-3.34,17.42,38.06,38.06,0,0,1-9.91,13.86,47.68,47.68,0,0,1-16.06,9.22,65.74,65.74,0,0,1-22,3.36,68.18,68.18,0,0,1-25.7-4.64,65.08,65.08,0,0,1-19.55-11.91l5.63-9.15a8.16,8.16,0,0,1,2.54-2.69,6.85,6.85,0,0,1,3.74-.94,8.94,8.94,0,0,1,5.09,1.88q2.68,1.89,6.49,4.17a49.25,49.25,0,0,0,9.31,4.17,42.54,42.54,0,0,0,13.66,1.88,37,37,0,0,0,12.18-1.82,25.58,25.58,0,0,0,8.7-4.91,19.51,19.51,0,0,0,5.15-7.13,22.32,22.32,0,0,0,1.67-8.61,14.35,14.35,0,0,0-3-9.35,25.5,25.5,0,0,0-8-6.32,64.88,64.88,0,0,0-11.31-4.58q-6.36-2-13-4.11t-13-4.91a45.51,45.51,0,0,1-11.31-6.93,31.29,31.29,0,0,1-8-10.29,33.44,33.44,0,0,1-3-14.87,36.41,36.41,0,0,1,3.22-15,36.78,36.78,0,0,1,9.37-12.64,46,46,0,0,1,15.13-8.68,60.26,60.26,0,0,1,20.48-3.23,64.55,64.55,0,0,1,24,4.24,56.89,56.89,0,0,1,18.41,11.64Z"/></g><g id="TItulo_E" data-name="TItulo/E"><polygon class="cls-2" points="1208.27 1902.48 1208.14 1923.73 1089.93 1923.73 1089.93 1730.95 1208.14 1730.95 1208.14 1752.21 1115.9 1752.21 1115.9 1816.24 1190.6 1816.24 1190.6 1836.69 1115.9 1836.69 1115.9 1902.48 1208.27 1902.48"/></g><g id="TItulo_o-2" data-name="TItulo/o"><path class="cls-2" d="M787.25,1785.3a68.93,68.93,0,0,1,26.78,5,57.43,57.43,0,0,1,20.35,14.12,62.1,62.1,0,0,1,12.92,22.13,96.11,96.11,0,0,1,0,58,62.1,62.1,0,0,1-12.92,22.07A56.61,56.61,0,0,1,814,1920.7a69.65,69.65,0,0,1-26.78,4.91,70.49,70.49,0,0,1-27-4.91,56.46,56.46,0,0,1-20.42-14.05,62.22,62.22,0,0,1-12.92-22.07,96.17,96.17,0,0,1,0-58,62.21,62.21,0,0,1,12.92-22.13,57.28,57.28,0,0,1,20.42-14.12,69.75,69.75,0,0,1,27-5m0,121.61q20.08,0,30-13.52t9.91-37.74q0-24.35-9.91-37.93t-30-13.59a41.84,41.84,0,0,0-17.74,3.5,33,33,0,0,0-12.58,10.09,44.89,44.89,0,0,0-7.5,16.21,87.22,87.22,0,0,0-2.48,21.72q0,24.22,10,37.74t30.32,13.52"/></g><g id="TItulo_t-2" data-name="TItulo/t"><path class="cls-2" d="M609.47,1925.88q-16.07,0-24.7-9t-8.64-26V1807.5H559.8a5.3,5.3,0,0,1-3.61-1.28,5,5,0,0,1-1.47-4v-9.55l22.22-2.83,5.49-42.11a5.86,5.86,0,0,1,1.81-3.3,5.28,5.28,0,0,1,3.68-1.28H600v47h39.22v17.35H600v81.8q0,8.61,4.15,12.78a14.45,14.45,0,0,0,10.71,4.17,18.91,18.91,0,0,0,6.49-1,28,28,0,0,0,4.76-2.22q2-1.21,3.41-2.22a4.47,4.47,0,0,1,2.48-1q1.87,0,3.34,2.29l7,11.44a44.34,44.34,0,0,1-14.86,9.08,50.26,50.26,0,0,1-17.94,3.3"/></g><g id="TItulo_O-3" data-name="TItulo/O"><path class="cls-2" d="M408.65,1785.3a68.93,68.93,0,0,1,26.78,5,57.41,57.41,0,0,1,20.35,14.12,62.1,62.1,0,0,1,12.92,22.13,96.11,96.11,0,0,1,0,58,62.1,62.1,0,0,1-12.92,22.07,56.59,56.59,0,0,1-20.35,14.05,69.65,69.65,0,0,1-26.78,4.91,70.49,70.49,0,0,1-27-4.91,56.46,56.46,0,0,1-20.42-14.05,62.24,62.24,0,0,1-12.92-22.07,96.17,96.17,0,0,1,0-58,62.23,62.23,0,0,1,12.92-22.13,57.28,57.28,0,0,1,20.42-14.12,69.75,69.75,0,0,1,27-5m0,121.61q20.08,0,30-13.52t9.91-37.74q0-24.35-9.91-37.93t-30-13.59a41.85,41.85,0,0,0-17.74,3.5,33,33,0,0,0-12.58,10.09,44.93,44.93,0,0,0-7.5,16.21,87.22,87.22,0,0,0-2.47,21.72q0,24.22,10,37.74t30.32,13.52"/></g><g id="TItulo_F" data-name="TItulo/F"><polygon class="cls-2" points="176.39 1752.21 176.39 1819.61 255.24 1819.61 255.24 1840.86 176.39 1840.86 176.39 1923.73 150.42 1923.73 150.42 1730.95 268.63 1730.95 268.63 1752.21 176.39 1752.21"/></g><g id="Camara_Azul" data-name="Camara/Azul"><path class="cls-3" d="M2308.61,281h-747.9C1495.8,281,1443,334.07,1443,399.3V839.84c0,65.23,52.81,118.3,117.72,118.3h747.9c64.91,0,117.72-53.07,117.72-118.3V399.3c0-65.23-52.81-118.3-117.72-118.3"/></g><g id="Camara_Amarillo" data-name="Camara/Amarillo"><path class="cls-4" d="M2431.15,536.42,1800.78,132c-54.71-35.1-127.64-18.93-162.57,36L1402.3,539.35c-34.93,55-18.84,128.26,35.87,163.36l630.37,404.44c54.71,35.1,127.64,18.93,162.57-36.05L2467,699.79c34.93-55,18.84-128.27-35.87-163.37"/></g><g id="Camara_rojo" data-name="Camara/rojo"><path class="cls-5" d="M2057.32,129,1436.39,548c-53.89,36.36-68.3,110-32.11,164.15l244.37,365.75c36.18,54.16,109.46,68.63,163.36,32.27l620.92-418.94c53.89-36.36,68.3-110,32.11-164.16L2220.67,161.28c-36.18-54.15-109.47-68.63-163.35-32.27"/></g><g id="Layer_9" data-name="Layer 9"><path class="cls-6" d="M2149.58,619.57c0,119.28-96.22,216-214.92,216s-214.92-96.69-214.92-216,96.23-216,214.92-216,214.92,96.69,214.92,216"/></g><g id="Layer_8" data-name="Layer 8"><path class="cls-7" d="M1934.66,547.88A71.69,71.69,0,1,0,2006,619.57a71.52,71.52,0,0,0-71.34-71.69"/></g><g id="Layer_7" data-name="Layer 7"><path class="cls-8" d="M1833.4,632.58a13,13,0,0,1-12.95-13c0-63.28,51.23-114.76,114.2-114.76a13,13,0,0,1,0,26c-48.69,0-88.31,39.81-88.31,88.74a13,13,0,0,1-12.95,13"/></g><g id="Layer_6" data-name="Layer 6"><path class="cls-9" d="M1934.66,835.54c-118.51,0-214.92-96.88-214.92-216s96.41-216,214.92-216,214.92,96.88,214.92,216-96.41,216-214.92,216m0-400.05c-101,0-183.18,82.58-183.18,184.08s82.18,184.08,183.18,184.08,183.18-82.58,183.18-184.08-82.17-184.08-183.18-184.08"/></g><g id="Layer_5" data-name="Layer 5"><path class="cls-7" d="M1934.66,767.75c-81.31,0-147.46-66.47-147.46-148.18s66.15-148.18,147.46-148.18,147.46,66.47,147.46,148.18S2016,767.75,1934.66,767.75m0-279.52c-72.07,0-130.7,58.92-130.7,131.34s58.63,131.34,130.7,131.34,130.7-58.92,130.7-131.34-58.63-131.34-130.7-131.34"/></g><g id="Camara_Texto" data-name="Camara/Texto"><text class="cls-10" transform="matrix(0.38, -0.93, 0.91, 0.39, 1761.6, 554.23)">C</text><text class="cls-10" transform="matrix(0.46, -0.89, 0.87, 0.47, 1768.41, 537.47)">h</text><text class="cls-10" transform="matrix(0.52, -0.86, 0.84, 0.53, 1776.6, 522.1)">i</text><text class="cls-10" transform="matrix(0.58, -0.82, 0.8, 0.59, 1780.16, 515.9)">n</text><text class="cls-10" transform="matrix(0.65, -0.76, 0.75, 0.66, 1790.04, 501.78)">o</text><text class="cls-10" transform="matrix(0.69, -0.72, 0.7, 0.71, 1801.28, 488.8)"> </text><text class="cls-10" transform="matrix(0.75, -0.66, 0.64, 0.77, 1805.38, 483.93)">Q</text><text class="cls-10" transform="matrix(0.81, -0.58, 0.57, 0.82, 1821.56, 469.76)">u</text><text class="cls-10" transform="matrix(0.84, -0.53, 0.52, 0.86, 1835.54, 459.87)">i</text><text class="cls-10" transform="matrix(0.87, -0.47, 0.46, 0.89, 1841.46, 455.95)">n</text><text class="cls-10" transform="matrix(0.91, -0.4, 0.39, 0.93, 1856.54, 447.99)">t</text><text class="cls-10" transform="matrix(0.93, -0.34, 0.33, 0.95, 1865.72, 443.82)">a</text><text class="cls-10" transform="matrix(0.96, -0.25, 0.25, 0.98, 1879.58, 438.72)">n</text><text class="cls-10" transform="matrix(0.97, -0.19, 0.18, 0.99, 1896.2, 434.48)">i</text><text class="cls-10" transform="matrix(0.98, -0.15, 0.14, 1, 1903.24, 433.1)">l</text><text class="cls-10" transform="matrix(0.98, -0.11, 0.11, 1, 1910.38, 432)">l</text><text class="cls-10" transform="matrix(0.99, -0.05, 0.05, 1.01, 1917.43, 431.08)">a</text></g><g id="Layer_3" data-name="Layer 3"><g class="cls-11"><g class="cls-12"><path class="cls-2" d="M1934.66,547.88A71.69,71.69,0,1,0,2006,619.57a71.52,71.52,0,0,0-71.34-71.69"/></g></g></g><g id="Layer_44" data-name="Layer 44"><path class="cls-2" d="M1935.45,641.79a9.17,9.17,0,1,1-9.17-9.21,9.19,9.19,0,0,1,9.17,9.21"/></g><g id="Cola"><path class="cls-2" d="M3619.46,1474.94q11.65-25.07,25.51-41.51t34.38-17.56a47.64,47.64,0,0,1,30.5,9.2,73.37,73.37,0,0,1,21.63,25.64,103.61,103.61,0,0,1,7.21,74.95,297.07,297.07,0,0,1-11.92,33.44q-7.48,17.84-26.34,35.94t-53,35.66q-34.1,17.55-91.5,32.6t-142,27q-84.56,12-203.79,18.67t-213.78,16.16q-94.54,9.47-169.14,22t-132,27.59q-57.39,15-102.59,33.16t-81.24,39.28a691.6,691.6,0,0,0-67.65,45.14q2.22-36.78-8-66.31t-29.11-51a146.65,146.65,0,0,0-44.92-34.55,189.65,189.65,0,0,0-55.18-17.83,206,206,0,0,0-59.61-.84,197.35,197.35,0,0,0-58.23,16.72q3.88-7.25,19.69-23.12t51.29-33.44q35.5-17.55,94.82-33.71t150.28-23.41q51-3.9,120.89-4.46t150.83.84q81,1.38,168.86,3.9t174.68,4.46q86.79,1.95,168.3,3.06t150-.83q68.5-2,119.5-7.53t77.08-16.16q30.5-12.82,49.91-30.92t29.39-38.17a106.18,106.18,0,0,0,11.37-40.12q1.38-20.07-3.88-35.94t-16.92-25.64a41.06,41.06,0,0,0-27.17-9.75q-11.1,0-24.12,11.14t-23,36.22a35.18,35.18,0,0,1-5.82,10q-3.06,3.34-5.55,3.34c-1.66,0-2.58-1.12-2.77-3.34s.83-5.57,3-10"/></g><g id="Quin_a" data-name="Quin/a"><path class="cls-2" d="M3425.37,1594.19q-20-.55-30.5-18.39t-12.48-44.58q-1.94-26.75,4.71-58.23a211.76,211.76,0,0,1,21.9-59.07,170.64,170.64,0,0,1,38.26-47.37q23-19.77,54.06-23.13,22.18-2.78,40.76,5.29t24.68,21.45a41.53,41.53,0,0,1,3.88,16.16,36.74,36.74,0,0,1-3.33,17.83q-3.88,8.36-13.31,13.37t-26.06,2.79q1.1-13.38-6.66-21.73t-23.29-7.24q-16.09,1.66-30.22,15.6a130.89,130.89,0,0,0-24.4,34,243.32,243.32,0,0,0-16.91,42.91,219.45,219.45,0,0,0-8.32,42.08q-1.67,19.22,1.66,32t13.31,12.82q11.64,0,23.84-15a200,200,0,0,0,22.74-35.94,444.81,444.81,0,0,0,18.85-42.91q8.33-22,13.31-35.39,3.33-9.47,13.31-11.7a36.66,36.66,0,0,1,20,1.11,35.07,35.07,0,0,1,16.35,11.15q6.37,7.81,2.49,18.39-5.55,15-13.59,34t-13.3,35.67q-5.28,16.72-5,28.42t11.92,11.7q11.09,0,23.29-12.54a195.93,195.93,0,0,0,23-29,309.42,309.42,0,0,0,18.57-32q7.76-15.59,10.54-21.73A26.06,26.06,0,0,1,3625,1466c2.22-2.23,4-3.34,5.27-3.34s2.12,1,2.5,3.07-.38,5.11-2.22,9.19q-2.22,4.47-6.38,15t-10.26,24a309.17,309.17,0,0,1-14.42,27.58,179.9,179.9,0,0,1-18.3,25.91,99.66,99.66,0,0,1-21.63,19.23,45.19,45.19,0,0,1-25,7.52q-13.87,0-21.9-6.69a40.19,40.19,0,0,1-11.93-16.72,64.69,64.69,0,0,1-4.16-22,134.75,134.75,0,0,1,1.39-23.13,205.28,205.28,0,0,1-12.75,27.31,101.43,101.43,0,0,1-16.36,22,74.13,74.13,0,0,1-20,14.49,47.86,47.86,0,0,1-23.57,4.74"/></g><g id="Quin_l" data-name="Quin/l"><path class="cls-2" d="M3261.8,1289.37q-13.31,21.19-26.62,41t-25.23,37.06q-11.93,17.28-21.9,30.93t-15.53,21.45a514.54,514.54,0,0,0-13.59,57.12q-4.72,27-5.27,47.09t3.32,31.76q3.88,11.71,12.76,11.71,9.41,0,21.07-10a162.45,162.45,0,0,0,22.74-24.52,279.41,279.41,0,0,0,20.24-30.37,266,266,0,0,0,14.14-27.59,28.9,28.9,0,0,1,5.27-8.91c2-2.23,3.78-3.43,5.26-3.62s2.4.75,2.77,2.78-.37,5.3-2.21,9.75q-5,11.71-14.14,31.77a296.31,296.31,0,0,1-22.18,39.84,188.09,188.09,0,0,1-28.56,34.26q-15.52,14.5-32.71,14.49-27.75,0-40.76-22.85t-13.59-60.74q-.54-37.89,10-86.93a716.67,716.67,0,0,1,30.5-102q17.75-46.81,39.65-78.3t42.7-48.2q20.79-16.72,37.15-18.67t23.29,10q6.92,12,1.11,37.61t-29.67,64.08m-76,87.49q12.75-17.82,26.06-39t26.06-42.35q24.4-40.67,31.05-63t.83-22.84q-5.82-.55-21.35,22t-34.38,71l-25.51,66.87Z"/></g><g id="Quin_l-2" data-name="Quin/l"><path class="cls-2" d="M3401,1289.37q-13.31,21.19-26.62,41t-25.23,37.06q-11.93,17.28-21.9,30.93t-15.53,21.45a513.42,513.42,0,0,0-13.59,57.12q-4.72,27-5.27,47.09t3.33,31.76q3.88,11.71,12.76,11.71,9.42,0,21.07-10a162.45,162.45,0,0,0,22.74-24.52,279.41,279.41,0,0,0,20.24-30.37,266,266,0,0,0,14.14-27.59,28.9,28.9,0,0,1,5.27-8.91c2-2.23,3.78-3.43,5.26-3.62s2.4.75,2.77,2.78-.37,5.3-2.21,9.75q-5,11.71-14.14,31.77a296.63,296.63,0,0,1-22.19,39.84,188.09,188.09,0,0,1-28.56,34.26q-15.53,14.5-32.71,14.49-27.75,0-40.76-22.85t-13.59-60.74q-.55-37.89,10-86.93a716.67,716.67,0,0,1,30.5-102q17.75-46.81,39.65-78.3t42.71-48.2q20.79-16.72,37.15-18.67t23.29,10q6.93,12,1.11,37.61T3401,1289.37m-76,87.49q12.75-17.82,26.06-39t26.06-42.35q24.4-40.67,31.05-63t.83-22.84q-5.82-.55-21.35,22t-34.38,71l-25.51,66.87Z"/></g><g id="Quin_i" data-name="Quin/i"><path class="cls-2" d="M3108.74,1474.94q10-22.83,15-22.57t-3.88,22.57q-2.79,6.15-8,17.83t-13,25.91a299.49,299.49,0,0,1-17.74,28.42,181.53,181.53,0,0,1-21.35,25.35,90.68,90.68,0,0,1-24.12,17.28,39.8,39.8,0,0,1-26.07,3.34q-16.63-2.78-25.5-14.76t-11.65-29.81q-2.77-17.82.56-40.68a298.79,298.79,0,0,1,11.37-47.92,437.91,437.91,0,0,1,20.24-51.27,489.46,489.46,0,0,1,27.73-51.26q8.31-13.92,19.41-13.1a29.87,29.87,0,0,1,19.41,9.2,45.52,45.52,0,0,1,11.65,20.62q3.33,12.26-3.33,21.73a323,323,0,0,0-17.75,28.42q-9.44,16.72-17.75,34.83t-15.25,36.22a268.26,268.26,0,0,0-10.53,33.16q-3.61,15.05-3,25.36t6.65,12.54q9.43,3.35,21.63-4.46t24.4-22a250.22,250.22,0,0,0,23-31.76,318.58,318.58,0,0,0,18-33.16M3142,1274.33a35.19,35.19,0,0,1-10.81,26.19,36.7,36.7,0,0,1-51.57,0,35.18,35.18,0,0,1-10.82-26.19,34.54,34.54,0,0,1,10.82-25.63,36.69,36.69,0,0,1,51.57,0,34.55,34.55,0,0,1,10.81,25.63"/></g><g id="Quin_n" data-name="Quin/n"><path class="cls-2" d="M2820.94,1360.7q-4.45,19-11.09,43.19t-14.42,49.87a491.54,491.54,0,0,1,43.26-63q18.29-22.28,37.43-34t35.21-13.37q16.07-1.67,26.89,5.85T2950.7,1373q1.67,13.38-3.88,32.6a391.23,391.23,0,0,1-14.15,40.12q-8.6,20.9-18,41.8t-16.08,37.89q-6.65,17-8,28.42t5.82,13.65q7.76,2.23,18.3-4.46t22.18-19.5a226.31,226.31,0,0,0,23-30.65,285,285,0,0,0,20.24-37.9q4.43-10.58,8.32-15.6t6.1-5c1.48,0,2,1.68,1.67,5s-2,8.55-5,15.6q-4.45,11.16-14.42,31.21a292.55,292.55,0,0,1-24.12,39.84,178.56,178.56,0,0,1-32.16,34.55q-18,14.78-38,14.77-14.43,0-23-8.91t-11.65-24.8q-3-15.88,0-37.61a295.31,295.31,0,0,1,11.37-47.93q3.32-9.47,7.48-20.62t8-21.45q3.87-10.31,7.21-18.67c2.22-5.57,3.69-9.66,4.44-12.26q-10.54,0-27.17,13.38t-34.94,35.94a409.66,409.66,0,0,0-35.21,51.55,400.13,400.13,0,0,0-28.56,59.63l-2.77,7.8q-6.11,17.27-15.25,21.17t-16.08-3.63q-6.93-7.52-9.71-25.91t5-46.81q2.78-10,9.15-27t15-38.17q8.59-21.17,18-45.42t17.75-49.87q3.87-11.14,11.64-17.55t15-6.41q7.2,0,11.65,6.69t1.11,22.29"/></g><g id="Quin_a-2" data-name="Quin/a"><path class="cls-2" d="M2542.57,1594.19q-20-.55-30.5-18.39t-12.48-44.58q-1.94-26.75,4.71-58.23a211.77,211.77,0,0,1,21.9-59.07,170.68,170.68,0,0,1,38.26-47.37q23-19.77,54.07-23.13,22.18-2.78,40.76,5.29t24.68,21.45a41.53,41.53,0,0,1,3.88,16.16,36.74,36.74,0,0,1-3.33,17.83q-3.88,8.36-13.31,13.37t-26.06,2.79q1.1-13.38-6.66-21.73t-23.29-7.24Q2599.12,1393,2585,1407a130.82,130.82,0,0,0-24.4,34,243.32,243.32,0,0,0-16.91,42.91,219.67,219.67,0,0,0-8.32,42.08q-1.66,19.22,1.66,32t13.31,12.82q11.64,0,23.84-15a200.09,200.09,0,0,0,22.74-35.94,445.46,445.46,0,0,0,18.85-42.91q8.32-22,13.31-35.39,3.33-9.47,13.31-11.7a36.66,36.66,0,0,1,20,1.11,35.05,35.05,0,0,1,16.35,11.15q6.37,7.81,2.5,18.39-5.55,15-13.59,34t-13.31,35.67q-5.28,16.72-5,28.42t11.92,11.7q11.08,0,23.29-12.54a196.09,196.09,0,0,0,23-29,308.94,308.94,0,0,0,18.57-32q7.76-15.59,10.54-21.73a26.06,26.06,0,0,1,5.55-8.91c2.22-2.23,4-3.34,5.27-3.34s2.12,1,2.49,3.07-.37,5.11-2.22,9.19q-2.22,4.47-6.38,15t-10.26,24a309.17,309.17,0,0,1-14.42,27.58,180.11,180.11,0,0,1-18.3,25.91,99.66,99.66,0,0,1-21.63,19.23,45.2,45.2,0,0,1-25,7.52q-13.87,0-21.9-6.69a40.17,40.17,0,0,1-11.93-16.72,64.56,64.56,0,0,1-4.16-22,134.75,134.75,0,0,1,1.39-23.13,206,206,0,0,1-12.75,27.31,101.35,101.35,0,0,1-16.36,22,74,74,0,0,1-20,14.49,47.84,47.84,0,0,1-23.56,4.74"/></g><g id="Quin_t" data-name="Quin/t"><path class="cls-2" d="M2245.89,1264.3q36.05,3.9,77.36,7t82.91,5.3q18.29-36.22,37.71-58.51t36.33-31.77q16.91-9.47,29.66-7.24t17.75,14.77q5,12.54.56,34.27t-21.63,50.71l-1.66,2.79q34.38,1.12,58.78,1.67t32.72.55q10.53,0,16.64,2.23t6.37,5q.27,2.8-5.27,5t-17.75,2.78l-104.25,3.35q-12.2,19.51-24.4,37.61t-23,33.72q-10.82,15.61-19.69,27.58t-14.42,19.23q-8.32,29.54-13,55.72t-4.71,46q0,19.79,5,31.76t16.08,13.65q12.2,1.67,26.06-8.36a149.38,149.38,0,0,0,26.34-24.8,268.67,268.67,0,0,0,22.73-31.21,212.93,212.93,0,0,0,15.25-28.14,26.29,26.29,0,0,1,5.54-8.91c2.22-2.23,4-3.43,5.27-3.62s2.12.75,2.49,2.78-.38,5.3-2.22,9.75q-5,12.27-15.25,32.6a291.11,291.11,0,0,1-24.4,39.84,172.7,172.7,0,0,1-31.89,33.72q-17.75,14.21-38.26,14.21-26.07,0-39.65-22.85t-15.8-60.74q-2.21-37.89,6.93-86.93t29.11-102l6.66-16.72-107.58,3.9q-22.73,1.13-38.26-7t-21.9-17.28q-6.36-9.2-1.66-16.44t22.46-5m205.74,39.57q-9.43,23.4-16.08,42.08T2425,1375.75q11.08-16.15,23.29-34.55t23.85-37.89h-10c-3.32,0-6.84.19-10.53.55m38.82-32.32q13.85-24,15.81-35.67t-3.88-10.87q-5.82.83-16.92,14.49t-23.29,39.84q6.1.57,11.65.84t11.64.28Z"/></g><g id="Quin_n-2" data-name="Quin/n"><path class="cls-2" d="M2191.55,1360.7q-4.45,19-11.09,43.19T2166,1453.76a491.29,491.29,0,0,1,43.25-63q18.3-22.28,37.43-34t35.22-13.37q16.07-1.67,26.89,5.85t12.48,23.68q1.66,13.38-3.88,32.6a390.43,390.43,0,0,1-14.14,40.12q-8.6,20.9-18,41.8t-16.08,37.89q-6.65,17-8,28.42t5.82,13.65q7.76,2.23,18.3-4.46t22.18-19.5a226.74,226.74,0,0,0,23-30.65,285.36,285.36,0,0,0,20.24-37.9q4.43-10.58,8.32-15.6t6.1-5c1.48,0,2,1.68,1.67,5s-2,8.55-5,15.6q-4.45,11.16-14.42,31.21a293.06,293.06,0,0,1-24.12,39.84,178.32,178.32,0,0,1-32.17,34.55q-18,14.78-38,14.77-14.43,0-23-8.91t-11.65-24.8q-3-15.88,0-37.61a295.31,295.31,0,0,1,11.37-47.93q3.33-9.47,7.48-20.62t8-21.45q3.87-10.31,7.21-18.67t4.44-12.26q-10.54,0-27.17,13.38t-34.94,35.94a409.38,409.38,0,0,0-35.21,51.55,400.4,400.4,0,0,0-28.56,59.63l-2.77,7.8q-6.11,17.27-15.25,21.17T2097,1588.9q-6.94-7.52-9.71-25.91t5-46.81q2.79-10,9.15-27t15-38.17q8.59-21.17,18-45.42t17.75-49.87q3.87-11.14,11.64-17.55t15-6.41q7.2,0,11.65,6.69t1.11,22.29"/></g><g id="Quin_i-2" data-name="Quin/i"><path class="cls-2" d="M2107.26,1474.94q10-22.83,15-22.57t-3.88,22.57q-2.79,6.15-8,17.83t-13,25.91a300.06,300.06,0,0,1-17.75,28.42,181.52,181.52,0,0,1-21.35,25.35,90.73,90.73,0,0,1-24.12,17.28,39.8,39.8,0,0,1-26.07,3.34q-16.63-2.78-25.5-14.76t-11.65-29.81q-2.77-17.82.56-40.68a298.56,298.56,0,0,1,11.37-47.92,437.47,437.47,0,0,1,20.24-51.27,490.4,490.4,0,0,1,27.73-51.26q8.32-13.92,19.41-13.1a29.88,29.88,0,0,1,19.41,9.2,45.54,45.54,0,0,1,11.65,20.62q3.33,12.26-3.33,21.73a323.09,323.09,0,0,0-17.75,28.42q-9.44,16.72-17.75,34.83t-15.25,36.22a268.17,268.17,0,0,0-10.53,33.16q-3.61,15.05-3.05,25.36t6.65,12.54q9.43,3.35,21.63-4.46t24.4-22a250.26,250.26,0,0,0,23-31.76,319.18,319.18,0,0,0,18-33.16m33.27-200.61a35.18,35.18,0,0,1-10.81,26.19,36.7,36.7,0,0,1-51.57,0,35.18,35.18,0,0,1-10.82-26.19,34.54,34.54,0,0,1,10.82-25.63,36.69,36.69,0,0,1,51.57,0,34.54,34.54,0,0,1,10.81,25.63"/></g><g id="Quin_u" data-name="Quin/u"><path class="cls-2" d="M1978.62,1474.94q10-22.84,15.52-22.29t-4.43,22.29q-2.78,6.14-8.32,17.83t-13.31,25.91q-7.77,14.21-17.47,28.42a168.7,168.7,0,0,1-21.07,25.35,90.6,90.6,0,0,1-24.13,17.28,39.77,39.77,0,0,1-26.06,3.34q-23.29-4.45-31.33-23.68t-5.82-48.2a261.88,261.88,0,0,1-15.52,27.86,153.82,153.82,0,0,1-19.13,24.52,80.07,80.07,0,0,1-22.18,16.44,38,38,0,0,1-25.23,3.06q-25-4.45-33.55-28.42t-4.44-58.51q4.16-34.54,19.69-74.67a484.77,484.77,0,0,1,38.26-77.46q8.32-13.92,19.13-12.81t19.13,10a47.26,47.26,0,0,1,11.37,21.46q3,12.53-3.6,22a288.44,288.44,0,0,0-17.47,28.42q-9.15,16.72-17.19,35.11t-14.42,36.5a249.5,249.5,0,0,0-9.42,33.16q-3.06,15-2.22,25.64t6.93,12.81q8.32,3.35,19.13-5.57t22.18-25.36a310.13,310.13,0,0,0,22.18-38.16q10.82-21.74,19.69-44,6.1-23.41,14.7-47.37t18-48.48q5-12.81,14.69-14.21t18.58,5.29q8.86,6.69,13,19.51t-1.38,27.86q-4.45,11.16-10.82,27.58t-13,34.55q-6.65,18.12-12.47,36.22t-9.15,33.44q-3.32,15.33-2.77,25.91t6.65,12.81q8.86,3.35,21.08-4.46t24.68-22a252.93,252.93,0,0,0,23.57-31.76,236.52,236.52,0,0,0,17.75-33.16"/></g><g id="Quin_Q" data-name="Quin/Q"><path class="cls-2" d="M1636.47,1263.18q27.16-12.25,47.41-4.46t31.05,30.09q10.81,22.29,11.92,56.28t-9.43,74.67q-11.65,45.14-34.1,80.25t-51.3,58.51q18.85,22.86,36.6,34t33,15q15.25,3.89,28,1.95t21.07-5.85a38.63,38.63,0,0,1,.56,21.46,53.15,53.15,0,0,1-8.6,18.11A50.74,50.74,0,0,1,1728.8,1656a34.56,34.56,0,0,1-15.8,5.57q-20,1.67-34.66-7.52a99.54,99.54,0,0,1-25.79-23.4,210.16,210.16,0,0,1-20-30.93q-8.88-16.71-16.64-29.53-41,26.75-82.63,26.75-42.71,0-75.42-31.76a66.11,66.11,0,0,0-8.87,15.89,81.7,81.7,0,0,0-3.88,13.65,38.38,38.38,0,0,0-1.11,12.81q-15,2.22-25.23-4.46a34.21,34.21,0,0,1-14.14-18.11q-3.88-11.42-.55-25.63t15.52-27l8.87-8.36q-12.2-25.08-16.36-56.29t1.94-68q8.31-47.92,26.62-84.7t43-62.41Q1508.36,1227,1538,1213t60.17-15.6q31.61-2.23,49.35,10.31t13.86,41.52q-31.61-6.69-60.72,0a147.12,147.12,0,0,0-53.51,24.24q-24.41,17.55-43.81,44.86t-31.05,62.41a292.55,292.55,0,0,0-12.48,61.58q-3.06,32.05,3,60.46a128.19,128.19,0,0,1,38.54-8.64,137.52,137.52,0,0,1,39.93,3.07,152.27,152.27,0,0,1,38,14.21,147.16,147.16,0,0,1,33.27,24.24q18.85-22.29,31.61-52.94a405.37,405.37,0,0,0,20.52-64.08,287.46,287.46,0,0,0,7.76-58.52q.55-27.3-3.88-47.65t-13-33.43q-8.6-13.09-19.13-15.89M1535,1575.24a88.64,88.64,0,0,0,34.38-6.68,99.65,99.65,0,0,0,29.39-18.95,140.1,140.1,0,0,0-27.72-19.23,79.7,79.7,0,0,0-29.95-8.92,81.08,81.08,0,0,0-31.61,3.62q-16.09,5-31.61,18.39a73.69,73.69,0,0,0,23.57,23.13q14.14,8.65,33.55,8.64"/></g><g id="Chino_o" data-name="Chino/o"><path class="cls-2" d="M1128.51,1340.64a39.58,39.58,0,0,1,20.24,7.52,77.05,77.05,0,0,1,14.69,14.22q6.1.56,15.53,4.46,13.85,6.69,19.69,21.73t5.27,34.27a158.91,158.91,0,0,1-7.21,41.24,276.75,276.75,0,0,1-17.19,43.18q12.75,1.12,29.39-5.85t25.51-26.47q3.33-7.79,6.93-11.7c2.4-2.59,4.25-3.9,5.55-3.9s1.94,1.31,1.94,3.9-1.11,6.5-3.33,11.7q-4.44,8.92-10.54,20.62a83.34,83.34,0,0,1-15.8,21.18,68.45,68.45,0,0,1-23.29,14.77q-13.6,5.3-31.89,1.95a210.85,210.85,0,0,1-24.4,29.53,131.23,131.23,0,0,1-28,21.74,81.39,81.39,0,0,1-30.22,10.31,62.33,62.33,0,0,1-31.05-4.18q-22.19-8.91-31.33-31.49t-8-51.27q1.12-28.7,11.1-59.63a233.43,233.43,0,0,1,26.06-55.73q16.08-24.79,36.88-39.84t43.53-12.26m17.19,186.68a63.24,63.24,0,0,1-28-25.91,98.09,98.09,0,0,1-12.2-36.78,127.46,127.46,0,0,1,1.39-40.12q3.87-20.34,13.31-35.39-15,10-27.73,26.75a184.19,184.19,0,0,0-21.63,36.5,204.38,204.38,0,0,0-13.31,40.12,161.83,161.83,0,0,0-4.16,37.06q.27,16.72,6.1,28.14a23.08,23.08,0,0,0,18.58,13.09q18.3,2.8,35.77-10t31.88-33.43m29.39-137.65q-9.44-5-16.91-.56t-12.2,14.49a83,83,0,0,0-6.65,23.68,105.64,105.64,0,0,0-.27,27.58,94.05,94.05,0,0,0,6.93,26.19,45.8,45.8,0,0,0,15.25,19.5,257.73,257.73,0,0,0,15-35.39,190.39,190.39,0,0,0,8.32-33.71q2.21-15.6,0-26.75t-9.43-15"/></g><g id="Chino_n" data-name="Chino/n"><path class="cls-2" d="M855.68,1360.7q-4.44,19-11.09,43.19t-14.42,49.87a492,492,0,0,1,43.25-63q18.3-22.28,37.43-34t35.21-13.37q16.08-1.67,26.9,5.85T985.44,1373q1.67,13.38-3.88,32.6a391.92,391.92,0,0,1-14.14,40.12q-8.61,20.9-18,41.8t-16.08,37.89q-6.65,17-8,28.42t5.82,13.65q7.77,2.23,18.3-4.46t22.18-19.5a226.83,226.83,0,0,0,23-30.65,285.21,285.21,0,0,0,20.24-37.9q4.43-10.58,8.32-15.6t6.1-5q2.21,0,1.66,5t-5,15.6q-4.44,11.16-14.42,31.21A292.79,292.79,0,0,1,987.39,1546a178.63,178.63,0,0,1-32.16,34.55q-18,14.78-38,14.77-14.43,0-23-8.91t-11.64-24.8q-3.06-15.88,0-37.61a294.87,294.87,0,0,1,11.37-47.93q3.33-9.47,7.49-20.62t8-21.45q3.88-10.31,7.21-18.67t4.44-12.26q-10.54,0-27.17,13.38T859,1452.37a409.77,409.77,0,0,0-35.21,51.55,399.64,399.64,0,0,0-28.56,59.63l-2.77,7.8q-6.11,17.27-15.25,21.17t-16.08-3.63q-6.93-7.52-9.7-25.91t5-46.81q2.78-10,9.15-27t15-38.17q8.59-21.17,18-45.42t17.74-49.87q3.87-11.14,11.65-17.55t15-6.41q7.2,0,11.65,6.69t1.11,22.29"/></g><g id="Chino_i" data-name="Chino/i"><path class="cls-2" d="M771.4,1474.94q10-22.83,15-22.57t-3.88,22.57q-2.78,6.15-8,17.83t-13,25.91a299.19,299.19,0,0,1-17.74,28.42,181.61,181.61,0,0,1-21.35,25.35,90.7,90.7,0,0,1-24.12,17.28,39.79,39.79,0,0,1-26.06,3.34q-16.63-2.78-25.51-14.76T635,1548.5q-2.77-17.82.55-40.68a299.27,299.27,0,0,1,11.37-47.92,437.31,437.31,0,0,1,20.24-51.27,491.17,491.17,0,0,1,27.72-51.26q8.32-13.92,19.41-13.1a29.88,29.88,0,0,1,19.41,9.2,45.54,45.54,0,0,1,11.65,20.62q3.33,12.26-3.33,21.73a324.37,324.37,0,0,0-17.74,28.42q-9.44,16.72-17.75,34.83t-15.25,36.22a268.21,268.21,0,0,0-10.53,33.16q-3.62,15.05-3.05,25.36t6.66,12.54q9.42,3.35,21.62-4.46t24.4-22a250.49,250.49,0,0,0,23-31.76,318.48,318.48,0,0,0,18-33.16m33.27-200.61a35.19,35.19,0,0,1-10.82,26.19,36.7,36.7,0,0,1-51.57,0,35.19,35.19,0,0,1-10.82-26.19,34.55,34.55,0,0,1,10.82-25.63,36.69,36.69,0,0,1,51.57,0,34.56,34.56,0,0,1,10.82,25.63"/></g><g id="Chino_h" data-name="Chino/h"><path class="cls-2" d="M657.16,1453.15q-5-.27-14.42,20.9a369.38,369.38,0,0,1-20.52,37.9,226.67,226.67,0,0,1-22.46,30.65q-11.37,12.83-22.18,19.5T559,1566.56q-7.21-2.23-5.82-13.65t8-28.42q6.66-17,16.08-37.89t18-41.8a391.06,391.06,0,0,0,14.14-40.12q5.54-19.22,3.88-32.6-1.66-16.15-12.48-23.68T574,1342.54q-16.09,1.67-35.21,13.37t-37.43,34q-9.44,11.16-18.3,23.68t-17.19,26.47q2.77-9.47,6.1-18.95t6.1-18.39q18.84-27.86,35.77-54.34t33-51q20.51-31.76,30.78-58t8.6-42.35q-1.67-11.14-8-17.28a23,23,0,0,0-15.8-6.4q-9.43-.27-21.63,5.85t-25,20.06q-17.76,19.51-35.49,54.61t-37.15,89.72q-12.77,36.23-23.85,69.93T400.41,1474v0l.06,0-7,24.57c-.08.27-.13.55-.22.82l0,.1-4.46,15.7h0q-7.77,28.43-5.82,46.81t8.32,25.91q6.37,7.53,15,3.63t14.69-21.17a329.57,329.57,0,0,1,28-61.86,487.25,487.25,0,0,1,36-54.05q18.57-24,36-38.17t28-14.21q-1.12,3.9-4.16,12.26t-7.21,18.67q-4.16,10.31-8.32,21.45t-7.49,20.62a295.67,295.67,0,0,0-11.37,47.93q-3,21.74,0,37.61t11.65,24.81q8.59,8.92,23,8.91,20.51,0,38.26-14.77a179.26,179.26,0,0,0,31.88-34.83,307.68,307.68,0,0,0,24.12-40.12q10-20.06,14.42-30.65Q662.16,1453.45,657.16,1453.15ZM500.78,1333.34q2.77-7.52,5.54-15.88,10.53-30.09,20.79-52.66A411.88,411.88,0,0,1,545.7,1228q8.32-14.21,14.42-19.22t8.87,0q2.21,3.9-.83,12.81a172.8,172.8,0,0,1-9.42,21.45q-6.39,12.55-15.53,28.14t-19.69,32.32l-27.72,44.58Q498,1340.88,500.78,1333.34Z"/></g><g id="Chino_C" data-name="Chino/C"><path class="cls-2" d="M399.12,1479.17a156.9,156.9,0,0,1-25.94,37.56,153.51,153.51,0,0,1-39.37,30.93A134.15,134.15,0,0,1,286.68,1563a101.75,101.75,0,0,1-50.19-6.13q-23.29-8.36-34.93-29.53T187.42,1478q-2.5-28.13,3.6-61a352.36,352.36,0,0,1,18.58-64.64,356,356,0,0,1,30.22-59.9q17.74-28.13,39.37-47.09t45.75-25.91q24.12-7,48.52,3.06,16.64,6.69,22.74,19.78a50,50,0,0,1,3.88,28.7A90.85,90.85,0,0,1,389,1302.46,99,99,0,0,1,366.25,1330a91.37,91.37,0,0,1-31.05,17.28,63.88,63.88,0,0,1-35.49,1.11,43.26,43.26,0,0,0-6.38,17.27,29.92,29.92,0,0,0,2.22,17.28q3.6,7.81,12.48,13.09t23.84,5.3q28.28,0,51.3-13.38a120.61,120.61,0,0,0,38-34.27,128.06,128.06,0,0,0,20.8-45.42q5.82-24.51-.28-46.81t-25-39q-18.86-16.72-53.24-21.73-44.37-6.13-81,5.29a192,192,0,0,0-65.16,34.83,220.79,220.79,0,0,0-48.52,56,284.74,284.74,0,0,0-30.5,68.26A275.68,275.68,0,0,0,127,1437.32q-.84,36.5,8.87,67.43a146.36,146.36,0,0,0,30.22,54.06q20.51,23.13,53.24,32,27.17,7.81,52.12,4.46A146.21,146.21,0,0,0,318,1581.09a166.53,166.53,0,0,0,39.65-27.86,222.68,222.68,0,0,0,30.45-35.3Z"/></g></svg>